<?xml version="1.0" encoding="UTF-8" standalone="no"?>
<!-- Created with Inkscape (http://www.inkscape.org/) -->

<svg
   version="1.1"
   id="svg2"
   xml:space="preserve"
   width="1066.6666"
   height="1066.6666"
   viewBox="0 0 1066.6666 1066.6666"
   sodipodi:docname="4badfb9fdb5df1dc045ee41dcca51322.eps"
   xmlns:inkscape="http://www.inkscape.org/namespaces/inkscape"
   xmlns:sodipodi="http://sodipodi.sourceforge.net/DTD/sodipodi-0.dtd"
   xmlns="http://www.w3.org/2000/svg"
   xmlns:svg="http://www.w3.org/2000/svg"><defs
     id="defs6" /><sodipodi:namedview
     id="namedview4"
     pagecolor="#ffffff"
     bordercolor="#666666"
     borderopacity="1.0"
     inkscape:pageshadow="2"
     inkscape:pageopacity="0.0"
     inkscape:pagecheckerboard="0" /><g
     id="g8"
     inkscape:groupmode="layer"
     inkscape:label="ink_ext_XXXXXX"
     transform="matrix(1.3333333,0,0,-1.3333333,0,1066.6666)"><g
       id="g10"
       transform="scale(0.1)"><path
         d="M 8000,0 H 0 V 8000 H 8000 V 0"
         style="fill:#f2ddbf;fill-opacity:1;fill-rule:nonzero;stroke:none"
         id="path12" /><g
         id="g14"
         transform="scale(10)"><text
           transform="matrix(0.737079,0.675806,0.675806,-0.737079,158.709,505.488)"
           style="font-variant:normal;font-weight:normal;font-size:14.4027px;font-family:CinzelDecorative;-inkscape-font-specification:CinzelDecorative-Regular;writing-mode:lr-tb;fill:#1d1919;fill-opacity:1;fill-rule:nonzero;stroke:none"
           id="text18"><tspan
             x="0"
             y="0"
             id="tspan16">s</tspan></text><text
           transform="matrix(0.809395,0.587265,0.587265,-0.809395,163.582,509.902)"
           style="font-variant:normal;font-weight:normal;font-size:14.4026px;font-family:CinzelDecorative;-inkscape-font-specification:CinzelDecorative-Regular;writing-mode:lr-tb;fill:#1d1919;fill-opacity:1;fill-rule:nonzero;stroke:none"
           id="text22"><tspan
             x="0"
             y="0"
             id="tspan20">i</tspan></text><text
           transform="matrix(0.895848,0.444361,0.444361,-0.895848,167.053,512.831)"
           style="font-variant:normal;font-weight:normal;font-size:14.4027px;font-family:CinzelDecorative;-inkscape-font-specification:CinzelDecorative-Regular;writing-mode:lr-tb;fill:#1d1919;fill-opacity:1;fill-rule:nonzero;stroke:none"
           id="text26"><tspan
             x="0"
             y="0"
             id="tspan24">n</tspan></text><text
           transform="matrix(0.971424,0.237351,0.237351,-0.971424,177.188,517.881)"
           style="font-variant:normal;font-weight:normal;font-size:14.4027px;font-family:CinzelDecorative;-inkscape-font-specification:CinzelDecorative-Regular;writing-mode:lr-tb;fill:#1d1919;fill-opacity:1;fill-rule:nonzero;stroke:none"
           id="text30"><tspan
             x="0"
             y="0"
             id="tspan28">c</tspan></text><text
           transform="matrix(0.998591,0.0530608,0.0530608,-0.998591,187.441,520.296)"
           style="font-variant:normal;font-weight:normal;font-size:14.4026px;font-family:CinzelDecorative;-inkscape-font-specification:CinzelDecorative-Regular;writing-mode:lr-tb;fill:#1d1919;fill-opacity:1;fill-rule:nonzero;stroke:none"
           id="text34"><tspan
             x="0"
             y="0"
             id="tspan32">e</tspan></text><text
           transform="matrix(0.989195,-0.146608,-0.146608,-0.989195,198.848,520.426)"
           style="font-variant:normal;font-weight:normal;font-size:14.4026px;font-family:CinzelDecorative;-inkscape-font-specification:CinzelDecorative-Regular;writing-mode:lr-tb;fill:#1d1919;fill-opacity:1;fill-rule:nonzero;stroke:none"
           id="text38"><tspan
             x="0"
             y="0"
             id="tspan36">1</tspan></text><text
           transform="matrix(0.962335,-0.271865,-0.271865,-0.962335,203.473,519.86)"
           style="font-variant:normal;font-weight:normal;font-size:14.4027px;font-family:CinzelDecorative;-inkscape-font-specification:CinzelDecorative-Regular;writing-mode:lr-tb;fill:#1d1919;fill-opacity:1;fill-rule:nonzero;stroke:none"
           id="text42"><tspan
             x="0"
             y="0"
             id="tspan40">9</tspan></text><text
           transform="matrix(0.911924,-0.410359,-0.410359,-0.911924,210.778,517.8)"
           style="font-variant:normal;font-weight:normal;font-size:14.4026px;font-family:CinzelDecorative;-inkscape-font-specification:CinzelDecorative-Regular;writing-mode:lr-tb;fill:#1d1919;fill-opacity:1;fill-rule:nonzero;stroke:none"
           id="text46"><tspan
             x="0"
             y="0"
             id="tspan44">7</tspan></text><text
           transform="matrix(0.8361,-0.548578,-0.548578,-0.8361,216.792,515.261)"
           style="font-variant:normal;font-weight:normal;font-size:14.4026px;font-family:CinzelDecorative;-inkscape-font-specification:CinzelDecorative-Regular;writing-mode:lr-tb;fill:#1d1919;fill-opacity:1;fill-rule:nonzero;stroke:none"
           id="text50"><tspan
             x="0"
             y="0"
             id="tspan48">0</tspan></text></g><path
         d="m 2645.45,4283.01 c 0,-30.88 -25.04,-55.92 -55.93,-55.92 H 1292.38 c -30.9,0 -55.94,25.04 -55.94,55.92 v 0 c 0,30.92 25.04,55.97 55.94,55.97 h 1297.14 c 30.89,0 55.93,-25.05 55.93,-55.97 v 0"
         style="fill:#1d1919;fill-opacity:1;fill-rule:nonzero;stroke:none"
         id="path52" /><path
         d="M 2549.81,4375.19 H 1332.08 c 0,336.27 272.6,608.85 608.85,608.85 336.27,0 608.88,-272.58 608.88,-608.85"
         style="fill:#1d1919;fill-opacity:1;fill-rule:nonzero;stroke:none"
         id="path54" /><path
         d="m 1940.93,5025.17 c 33.95,0 67.23,-2.81 99.66,-8.17 0.99,5.6 1.53,11.34 1.53,17.25 0,55.87 -45.29,101.17 -101.19,101.17 -55.87,0 -101.17,-45.3 -101.17,-101.17 0,-5.91 0.55,-11.65 1.53,-17.25 32.44,5.36 65.71,8.17 99.64,8.17"
         style="fill:#1d1919;fill-opacity:1;fill-rule:nonzero;stroke:none"
         id="path56" /><g
         id="g58"
         transform="scale(10)"><text
           transform="matrix(1,0,0,-1,155.04,458.157)"
           style="font-variant:normal;font-weight:normal;font-size:23.1777px;font-family:AlexBrush;-inkscape-font-specification:AlexBrush-Regular;writing-mode:lr-tb;fill:#f2ddbf;fill-opacity:1;fill-rule:nonzero;stroke:none"
           id="text62"><tspan
             x="0 19.190403 25.703337 32.21627 43.040257 47.62944 53.238445 59.751377 66.264313"
             y="0"
             sodipodi:role="line"
             id="tspan60">Good food</tspan></text></g><path
         d="m 2905.16,4533.12 c 0,-533.33 -432.36,-965.7 -965.73,-965.7 -533.32,0 -965.692,432.37 -965.692,965.7 0,533.35 432.372,965.72 965.692,965.72 533.37,0 965.73,-432.37 965.73,-965.72 z"
         style="fill:none;stroke:#1d1918;stroke-width:70;stroke-linecap:butt;stroke-linejoin:miter;stroke-miterlimit:10;stroke-dasharray:none;stroke-opacity:1"
         id="path64" /><path
         d="m 2825.55,4533.12 c 0,-489.37 -396.73,-886.09 -886.12,-886.09 -489.38,0 -886.09,396.72 -886.09,886.09 0,489.4 396.71,886.12 886.09,886.12 489.39,0 886.12,-396.72 886.12,-886.12 z"
         style="fill:none;stroke:#1d1918;stroke-width:10;stroke-linecap:butt;stroke-linejoin:miter;stroke-miterlimit:10;stroke-dasharray:none;stroke-opacity:1"
         id="path66" /><path
         d="M 1308.77,3668.26 H 623.531 l 90.746,166.76 -90.746,166.76 h 685.239 v -333.52"
         style="fill:#1d1919;fill-opacity:1;fill-rule:nonzero;stroke:none"
         id="path68" /><path
         d="m 2573.1,3668.26 h 685.26 l -90.76,166.76 90.76,166.76 H 2573.1 v -333.52"
         style="fill:#1d1919;fill-opacity:1;fill-rule:nonzero;stroke:none"
         id="path70" /><path
         d="M 1296.99,3697.42 H 672.449 l 76.082,139.79 -76.082,139.78 h 624.541 z"
         style="fill:none;stroke:#f2ddbf;stroke-width:10;stroke-linecap:butt;stroke-linejoin:miter;stroke-miterlimit:10;stroke-dasharray:none;stroke-opacity:1"
         id="path72" /><path
         d="M 1311.74,3668.26 984.332,3835.02 H 1311.74 Z"
         style="fill:#302627;fill-opacity:1;fill-rule:nonzero;stroke:none"
         id="path74" /><path
         d="m 2595.58,3696.07 h 607.91 l -76.12,139.87 76.12,139.88 h -607.91 z"
         style="fill:none;stroke:#f2ddbf;stroke-width:10;stroke-linecap:butt;stroke-linejoin:miter;stroke-miterlimit:10;stroke-dasharray:none;stroke-opacity:1"
         id="path76" /><path
         d="M 2900.52,3835.02 H 984.332 v 321.39 H 2900.52 v -321.39"
         style="fill:#1d1919;fill-opacity:1;fill-rule:nonzero;stroke:none"
         id="path78" /><g
         id="g80"
         transform="scale(10)"><text
           transform="matrix(1,0,0,-1,128.314,392.597)"
           style="font-variant:normal;font-weight:normal;font-size:20.0599px;font-family:CinzelDecorative;-inkscape-font-specification:CinzelDecorative-Regular;writing-mode:lr-tb;fill:#f2ddbf;fill-opacity:1;fill-rule:nonzero;stroke:none"
           id="text84"><tspan
             x="0 13.079055 24.653618 34.202129 45.194828 58.775936 74.522957 87.501457 101.7841 118.65448"
             y="0"
             sodipodi:role="line"
             id="tspan82">Restaurant</tspan></text></g><path
         d="m 2573.1,3668.26 327.42,166.76 H 2573.1 Z"
         style="fill:#302627;fill-opacity:1;fill-rule:nonzero;stroke:none"
         id="path86" /><path
         d="M 2856.4,3865.8 H 1013.67 v 262.83 H 2856.4 Z"
         style="fill:none;stroke:#f2ddbf;stroke-width:10;stroke-linecap:butt;stroke-linejoin:miter;stroke-miterlimit:10;stroke-dasharray:none;stroke-opacity:1"
         id="path88" /><path
         d="m 7035.43,4512.54 c 0,-350.75 -284.37,-635.1 -635.11,-635.1 -350.78,0 -635.11,284.35 -635.11,635.1 0,350.76 284.33,635.11 635.11,635.11 350.74,0 635.11,-284.35 635.11,-635.11"
         style="fill:#1d1919;fill-opacity:1;fill-rule:nonzero;stroke:none"
         id="path90" /><path
         d="m 6908.38,4893.65 -405.17,-5.37 c 0,0 -62.69,68.88 -182.84,75.03 -117.78,6.03 -153.26,-54.23 -154.78,-105.12 1.14,-50.91 36.22,-111.41 154.05,-106.22 120.18,5.31 183.34,73.74 183.34,73.74 l 455.09,-9.22 c -14.73,26.97 -31.35,52.74 -49.69,77.16"
         style="fill:#f2ddbf;fill-opacity:1;fill-rule:nonzero;stroke:none"
         id="path92" /><path
         d="m 6440.24,4116.23 c -0.29,25.74 187.04,32.44 179.88,32.96 7.16,0.67 -180.28,3.19 -180.57,28.93 -0.29,25.75 180.03,19.17 180.03,19.17 -17.24,6.25 -154.93,39.05 -234.27,33.87 -79.32,-5.16 -105.92,-53.75 -105.92,-53.75 l -425.27,11.09 c 16.09,-27.07 34.1,-52.87 53.91,-77.13 l 372.11,2.01 c 0,0 27.62,-47.97 107.05,-51.39 79.45,-3.4 216.37,32.46 233.47,39.07 0,0 -180.13,-10.57 -180.42,15.17"
         style="fill:#f2ddbf;fill-opacity:1;fill-rule:nonzero;stroke:none"
         id="path94" /><path
         d="m 7111.3,4512.54 c 0,-392.66 -318.31,-710.99 -710.98,-710.99 -392.66,0 -710.98,318.33 -710.98,710.99 0,392.67 318.32,710.98 710.98,710.98 392.67,0 710.98,-318.31 710.98,-710.98 z"
         style="fill:none;stroke:#1d1918;stroke-width:70;stroke-linecap:butt;stroke-linejoin:miter;stroke-miterlimit:10;stroke-dasharray:none;stroke-opacity:1"
         id="path96" /><g
         id="g98"
         transform="scale(10)"><text
           transform="matrix(1,0,0,-1,594.841,444.961)"
           style="font-variant:normal;font-weight:normal;font-size:26.8331px;font-family:AlexBrush;-inkscape-font-specification:AlexBrush-Regular;writing-mode:lr-tb;fill:#f2ddbf;fill-opacity:1;fill-rule:nonzero;stroke:none"
           id="text102"><tspan
             x="0 22.217806 29.757908 37.298008 49.828285 55.141777 61.635387 69.175491 76.714561"
             y="0"
             sodipodi:role="line"
             id="tspan100">Good food</tspan></text></g><path
         d="M 2691.64,6146.89 H 1527.47 l 185.43,340.75 -185.43,340.77 h 1164.17 v -681.52"
         style="fill:#1d1919;fill-opacity:1;fill-rule:nonzero;stroke:none"
         id="path104" /><path
         d="m 5275.31,6146.89 h 1164.18 l -185.45,340.75 185.45,340.77 H 5275.31 v -681.52"
         style="fill:#1d1919;fill-opacity:1;fill-rule:nonzero;stroke:none"
         id="path106" /><path
         d="M 5944.39,6487.64 H 2028.7 v 656.79 h 3915.69 v -656.79"
         style="fill:#483b41;fill-opacity:1;fill-rule:nonzero;stroke:none"
         id="path108" /><g
         id="g110"
         transform="scale(10)"><text
           transform="matrix(1,0,0,-1,233.624,672.13)"
           style="font-variant:normal;font-weight:normal;font-size:31.2018px;font-family:CinzelDecorative;-inkscape-font-specification:CinzelDecorative-Regular;writing-mode:lr-tb;fill:#f2ddbf;fill-opacity:1;fill-rule:nonzero;stroke:none"
           id="text114"><tspan
             x="0 20.967304 39.594696 55.070786 72.793488 94.541084 119.6583 140.46982 163.30922 190.17352 210.08026 218.50459 236.66379 259.5036 278.09927 296.41571 314.57489"
             y="0"
             sodipodi:role="line"
             id="tspan112">Restaurant labels</tspan></text></g><path
         d="m 5275.31,6146.89 669.08,340.75 h -669.08 z"
         style="fill:#302627;fill-opacity:1;fill-rule:nonzero;stroke:none"
         id="path116" /><path
         d="m 2697.72,6146.89 -669.02,340.75 h 669.02 z"
         style="fill:#302627;fill-opacity:1;fill-rule:nonzero;stroke:none"
         id="path118" /><path
         d="m 4961.6,4514.82 c 0,-350.75 -284.35,-635.11 -635.1,-635.11 -350.74,0 -635.1,284.36 -635.1,635.11 0,350.77 284.36,635.11 635.1,635.11 350.75,0 635.1,-284.34 635.1,-635.11"
         style="fill:#1d1919;fill-opacity:1;fill-rule:nonzero;stroke:none"
         id="path120" /><path
         d="m 5037.49,4514.82 c 0,-392.67 -318.31,-710.96 -710.99,-710.96 -392.66,0 -710.98,318.29 -710.98,710.96 0,392.68 318.32,711 710.98,711 392.68,0 710.99,-318.32 710.99,-711 z"
         style="fill:none;stroke:#1d1918;stroke-width:70;stroke-linecap:butt;stroke-linejoin:miter;stroke-miterlimit:10;stroke-dasharray:none;stroke-opacity:1"
         id="path122" /><path
         d="M 5230.5,4328.79 H 3422.51 v 303.26 H 5230.5 v -303.26"
         style="fill:#1d1919;fill-opacity:1;fill-rule:nonzero;stroke:none"
         id="path124" /><path
         d="M 5230.5,4328.79 H 3422.51 v 303.26 H 5230.5 Z"
         style="fill:none;stroke:#f2ddbf;stroke-width:40;stroke-linecap:butt;stroke-linejoin:miter;stroke-miterlimit:10;stroke-dasharray:none;stroke-opacity:1"
         id="path126" /><g
         id="g128"
         transform="scale(10)"><text
           transform="matrix(1,0,0,-1,370.441,441.462)"
           style="font-variant:normal;font-weight:normal;font-size:18.9273px;font-family:CinzelDecorative;-inkscape-font-specification:CinzelDecorative-Regular;writing-mode:lr-tb;fill:#f2ddbf;fill-opacity:1;fill-rule:nonzero;stroke:none"
           id="text132"><tspan
             x="0 12.3406 23.261652 32.271046 42.642971 55.457489 70.315422 82.561531 96.037132 111.95499"
             y="0"
             sodipodi:role="line"
             id="tspan130">Restaurant</tspan></text></g><path
         d="m 4258.37,5017.47 c -36.51,38.81 -66.94,30.28 -83.38,14.16 -15.56,-16.96 -23.05,-47.65 16.99,-82.84 40.85,-35.88 82.85,-33.32 82.85,-33.32 l 188.39,-188.32 13.64,13.64 13.67,13.65 -196.04,181.35 c 0,0 1.11,42.07 -36.12,81.68"
         style="fill:#f2ddbf;fill-opacity:1;fill-rule:nonzero;stroke:none"
         id="path134" /><path
         d="m 4373.05,4983.11 c -24.31,-26.47 -17.84,-50.63 -17.84,-50.63 l -190.17,-184.9 13.31,-13.31 13.33,-13.32 183.76,190.83 c 0,0 24.03,-7.04 51.05,16.65 27.01,23.69 60.53,78.17 64.04,85.68 0,0 -55.52,-59.72 -63.67,-51.4 -8.14,8.34 50.97,69.01 48.45,66.95 2.14,2.45 -59.85,-55.27 -68.02,-46.94 -8.11,8.32 52.85,62.48 52.85,62.48 -7.59,-3.34 -62.83,-35.63 -87.09,-62.09"
         style="fill:#f2ddbf;fill-opacity:1;fill-rule:nonzero;stroke:none"
         id="path136" /><path
         d="m 4490.53,4883.07 h 223.12"
         style="fill:#f2ddbf;fill-opacity:1;fill-rule:nonzero;stroke:none"
         id="path138" /><path
         d="m 4490.53,4883.07 h 223.12"
         style="fill:none;stroke:#f2ddbf;stroke-width:20;stroke-linecap:round;stroke-linejoin:miter;stroke-miterlimit:10;stroke-dasharray:none;stroke-opacity:1"
         id="path140" /><path
         d="m 4529.72,4949.48 h 144.76"
         style="fill:#f2ddbf;fill-opacity:1;fill-rule:nonzero;stroke:none"
         id="path142" /><path
         d="m 4529.72,4949.48 h 144.76"
         style="fill:none;stroke:#f2ddbf;stroke-width:20;stroke-linecap:round;stroke-linejoin:miter;stroke-miterlimit:10;stroke-dasharray:none;stroke-opacity:1"
         id="path144" /><path
         d="m 4529.72,4818.69 h 144.76"
         style="fill:#f2ddbf;fill-opacity:1;fill-rule:nonzero;stroke:none"
         id="path146" /><path
         d="m 4529.72,4818.69 h 144.76"
         style="fill:none;stroke:#f2ddbf;stroke-width:20;stroke-linecap:round;stroke-linejoin:miter;stroke-miterlimit:10;stroke-dasharray:none;stroke-opacity:1"
         id="path148" /><path
         d="m 3939.35,4883.07 h 223.13"
         style="fill:#f2ddbf;fill-opacity:1;fill-rule:nonzero;stroke:none"
         id="path150" /><path
         d="m 3939.35,4883.07 h 223.13"
         style="fill:none;stroke:#f2ddbf;stroke-width:20;stroke-linecap:round;stroke-linejoin:miter;stroke-miterlimit:10;stroke-dasharray:none;stroke-opacity:1"
         id="path152" /><path
         d="m 3978.52,4951.57 h 144.79"
         style="fill:#f2ddbf;fill-opacity:1;fill-rule:nonzero;stroke:none"
         id="path154" /><path
         d="m 3978.52,4951.57 h 144.79"
         style="fill:none;stroke:#f2ddbf;stroke-width:20;stroke-linecap:round;stroke-linejoin:miter;stroke-miterlimit:10;stroke-dasharray:none;stroke-opacity:1"
         id="path156" /><path
         d="m 3978.52,4820.77 h 144.79"
         style="fill:#f2ddbf;fill-opacity:1;fill-rule:nonzero;stroke:none"
         id="path158" /><path
         d="m 3978.52,4820.77 h 144.79"
         style="fill:none;stroke:#f2ddbf;stroke-width:20;stroke-linecap:round;stroke-linejoin:miter;stroke-miterlimit:10;stroke-dasharray:none;stroke-opacity:1"
         id="path160" /><g
         id="g162"
         transform="scale(10)"><text
           transform="matrix(1,0,0,-1,396.805,408.984)"
           style="font-variant:normal;font-weight:normal;font-size:20.9818px;font-family:AlexBrush;-inkscape-font-specification:AlexBrush-Regular;writing-mode:lr-tb;fill:#f2ddbf;fill-opacity:1;fill-rule:nonzero;stroke:none"
           id="text166"><tspan
             x="0 17.372931 23.268816 29.164701 38.962566 43.116962 48.194561 54.09103 59.986916"
             y="0"
             sodipodi:role="line"
             id="tspan164">Good food</tspan></text></g><g
         id="g168"
         transform="scale(10)"><text
           transform="matrix(0.770094,0.63793,0.63793,-0.770094,595.89,281.476)"
           style="font-variant:normal;font-weight:normal;font-size:20.6842px;font-family:CinzelDecorative;-inkscape-font-specification:CinzelDecorative-Regular;writing-mode:lr-tb;fill:#1d1919;fill-opacity:1;fill-rule:nonzero;stroke:none"
           id="text172"><tspan
             x="0"
             y="0"
             id="tspan170">R</tspan></text><text
           transform="matrix(0.856412,0.516293,0.516293,-0.856412,605.897,289.739)"
           style="font-variant:normal;font-weight:normal;font-size:20.6842px;font-family:CinzelDecorative;-inkscape-font-specification:CinzelDecorative-Regular;writing-mode:lr-tb;fill:#1d1919;fill-opacity:1;fill-rule:nonzero;stroke:none"
           id="text176"><tspan
             x="0"
             y="0"
             id="tspan174">e</tspan></text><text
           transform="matrix(0.915515,0.402283,0.402283,-0.915515,615.75,295.638)"
           style="font-variant:normal;font-weight:normal;font-size:20.6842px;font-family:CinzelDecorative;-inkscape-font-specification:CinzelDecorative-Regular;writing-mode:lr-tb;fill:#1d1919;fill-opacity:1;fill-rule:nonzero;stroke:none"
           id="text180"><tspan
             x="0"
             y="0"
             id="tspan178">s</tspan></text><text
           transform="matrix(0.961049,0.276379,0.276379,-0.961049,624.311,299.538)"
           style="font-variant:normal;font-weight:normal;font-size:20.6843px;font-family:CinzelDecorative;-inkscape-font-specification:CinzelDecorative-Regular;writing-mode:lr-tb;fill:#1d1919;fill-opacity:1;fill-rule:nonzero;stroke:none"
           id="text184"><tspan
             x="0"
             y="0"
             id="tspan182">t</tspan></text><text
           transform="matrix(0.99081,0.13526,0.13526,-0.99081,634.676,302.735)"
           style="font-variant:normal;font-weight:normal;font-size:20.6843px;font-family:CinzelDecorative;-inkscape-font-specification:CinzelDecorative-Regular;writing-mode:lr-tb;fill:#1d1919;fill-opacity:1;fill-rule:nonzero;stroke:none"
           id="text188"><tspan
             x="0"
             y="0"
             id="tspan186">a</tspan></text><text
           transform="matrix(0.999383,-0.0351272,-0.0351273,-0.999383,647.943,304.727)"
           style="font-variant:normal;font-weight:normal;font-size:20.6843px;font-family:CinzelDecorative;-inkscape-font-specification:CinzelDecorative-Regular;writing-mode:lr-tb;fill:#1d1919;fill-opacity:1;fill-rule:nonzero;stroke:none"
           id="text192"><tspan
             x="0"
             y="0"
             id="tspan190">u</tspan></text><text
           transform="matrix(0.977333,-0.21171,-0.21171,-0.977333,663.565,304.135)"
           style="font-variant:normal;font-weight:normal;font-size:20.6843px;font-family:CinzelDecorative;-inkscape-font-specification:CinzelDecorative-Regular;writing-mode:lr-tb;fill:#1d1919;fill-opacity:1;fill-rule:nonzero;stroke:none"
           id="text196"><tspan
             x="0"
             y="0"
             id="tspan194">r</tspan></text><text
           transform="matrix(0.93014,-0.367206,-0.367206,-0.93014,676.161,301.53)"
           style="font-variant:normal;font-weight:normal;font-size:20.6842px;font-family:CinzelDecorative;-inkscape-font-specification:CinzelDecorative-Regular;writing-mode:lr-tb;fill:#1d1919;fill-opacity:1;fill-rule:nonzero;stroke:none"
           id="text200"><tspan
             x="0"
             y="0"
             id="tspan198">a</tspan></text><text
           transform="matrix(0.844939,-0.534862,-0.534862,-0.844939,689.333,296.528)"
           style="font-variant:normal;font-weight:normal;font-size:20.6842px;font-family:CinzelDecorative;-inkscape-font-specification:CinzelDecorative-Regular;writing-mode:lr-tb;fill:#1d1919;fill-opacity:1;fill-rule:nonzero;stroke:none"
           id="text204"><tspan
             x="0"
             y="0"
             id="tspan202">n</tspan></text><text
           transform="matrix(0.737918,-0.67489,-0.67489,-0.737918,703.453,287.409)"
           style="font-variant:normal;font-weight:normal;font-size:20.6843px;font-family:CinzelDecorative;-inkscape-font-specification:CinzelDecorative-Regular;writing-mode:lr-tb;fill:#1d1919;fill-opacity:1;fill-rule:nonzero;stroke:none"
           id="text208"><tspan
             x="0"
             y="0"
             id="tspan206">t</tspan></text></g><path
         d="m 7053.69,2336.87 c 0,-288.79 -234.12,-522.92 -522.93,-522.92 -288.79,0 -522.89,234.13 -522.89,522.92 0,288.79 234.1,522.92 522.89,522.92 288.81,0 522.93,-234.13 522.93,-522.92"
         style="fill:#f2ddbf;fill-opacity:1;fill-rule:nonzero;stroke:none"
         id="path210" /><path
         d="m 7053.69,2336.87 c 0,-288.79 -234.12,-522.92 -522.93,-522.92 -288.79,0 -522.89,234.13 -522.89,522.92 0,288.79 234.1,522.92 522.89,522.92 288.81,0 522.93,-234.13 522.93,-522.92 z"
         style="fill:none;stroke:#1c1919;stroke-width:50;stroke-linecap:butt;stroke-linejoin:miter;stroke-miterlimit:10;stroke-dasharray:none;stroke-opacity:1"
         id="path212" /><path
         d="m 6976.76,2336.87 c 0,-246.3 -199.67,-445.99 -446,-445.99 -246.31,0 -445.97,199.69 -445.97,445.99 0,246.32 199.66,445.99 445.97,445.99 246.33,0 446,-199.67 446,-445.99 z"
         style="fill:none;stroke:#1d1918;stroke-width:30;stroke-linecap:butt;stroke-linejoin:miter;stroke-miterlimit:10;stroke-dasharray:none;stroke-opacity:1"
         id="path214" /><path
         d="m 5951.09,2612.55 c 3.23,104.49 -50.82,134.84 -95.93,135.28 -45.08,-1.95 -98.07,-34.12 -91.33,-138.42 6.87,-106.4 68.65,-161.12 68.65,-161.12 l 0.1,-522.4 h 37.87 l 37.87,0.01 -20.37,523.29 c 0,0 59.88,56.82 63.14,163.36"
         style="fill:#1d1919;fill-opacity:1;fill-rule:nonzero;stroke:none"
         id="path216" /><path
         d="m 7134.38,2540.84 c 3.16,-70.37 45.74,-94.79 45.74,-94.79 l -6.14,-520.15 36.94,0.1 36.93,0.07 -10.97,519.46 c 0,0 42.98,23.67 47.44,93.97 4.41,70.34 -24.93,192.31 -30.49,207.56 0,0 6.17,-159.79 -16.62,-159.58 -22.83,0.2 -25.43,166.31 -26.04,159.97 -0.45,6.34 -6.01,-159.69 -28.85,-159.49 -22.81,0.22 -13.77,159.86 -13.77,159.86 -5.84,-15.15 -37.34,-136.58 -34.17,-206.98"
         style="fill:#1d1919;fill-opacity:1;fill-rule:nonzero;stroke:none"
         id="path218" /><g
         id="g220"
         transform="scale(10)"><text
           transform="matrix(1,0,0,-1,624.526,240.477)"
           style="font-variant:normal;font-weight:normal;font-size:28.6895px;font-family:AlexBrush;-inkscape-font-specification:AlexBrush-Regular;writing-mode:lr-tb;fill:#100f0d;fill-opacity:1;fill-rule:nonzero;stroke:none"
           id="text224"><tspan
             x="0 23.754906 31.816656 39.878407"
             y="0"
             sodipodi:role="line"
             id="tspan222">Good</tspan></text><text
           transform="matrix(1,0,0,-1,633.42483,213.6161)"
           style="font-variant:normal;font-weight:normal;font-size:29.204px;font-family:AlexBrush;-inkscape-font-specification:AlexBrush-Regular;writing-mode:lr-tb;fill:#100f0d;fill-opacity:1;fill-rule:nonzero;stroke:none"
           id="text228"><tspan
             x="0 7.067368 15.273692 23.480017"
             y="0"
             sodipodi:role="line"
             id="tspan226">food</tspan></text></g><g
         id="g230"
         transform="scale(10)"><text
           transform="matrix(0.831118,-0.556096,-0.556096,-0.831118,594.965,169.498)"
           style="font-variant:normal;font-weight:normal;font-size:20.6842px;font-family:CinzelDecorative;-inkscape-font-specification:CinzelDecorative-Regular;writing-mode:lr-tb;fill:#1d1919;fill-opacity:1;fill-rule:nonzero;stroke:none"
           id="text234"><tspan
             x="0"
             y="0"
             id="tspan232">s</tspan></text><text
           transform="matrix(0.883237,-0.468926,-0.468926,-0.883237,604.397,163.361)"
           style="font-variant:normal;font-weight:normal;font-size:20.6842px;font-family:CinzelDecorative;-inkscape-font-specification:CinzelDecorative-Regular;writing-mode:lr-tb;fill:#1d1919;fill-opacity:1;fill-rule:nonzero;stroke:none"
           id="text238"><tspan
             x="0"
             y="0"
             id="tspan236">i</tspan></text><text
           transform="matrix(0.941612,-0.3367,-0.3367,-0.941612,612.252,158.934)"
           style="font-variant:normal;font-weight:normal;font-size:20.6842px;font-family:CinzelDecorative;-inkscape-font-specification:CinzelDecorative-Regular;writing-mode:lr-tb;fill:#1d1919;fill-opacity:1;fill-rule:nonzero;stroke:none"
           id="text242"><tspan
             x="0"
             y="0"
             id="tspan240">n</tspan></text><text
           transform="matrix(0.98883,-0.149051,-0.149051,-0.98883,630.924,152.577)"
           style="font-variant:normal;font-weight:normal;font-size:20.6843px;font-family:CinzelDecorative;-inkscape-font-specification:CinzelDecorative-Regular;writing-mode:lr-tb;fill:#1d1919;fill-opacity:1;fill-rule:nonzero;stroke:none"
           id="text246"><tspan
             x="0"
             y="0"
             id="tspan244">c</tspan></text><text
           transform="matrix(0.999835,0.01819,0.01819,-0.999835,648.844,150.236)"
           style="font-variant:normal;font-weight:normal;font-size:20.6842px;font-family:CinzelDecorative;-inkscape-font-specification:CinzelDecorative-Regular;writing-mode:lr-tb;fill:#1d1919;fill-opacity:1;fill-rule:nonzero;stroke:none"
           id="text250"><tspan
             x="0"
             y="0"
             id="tspan248">e</tspan></text><text
           transform="matrix(0.980918,0.19442,0.19442,-0.980918,668.362,151.484)"
           style="font-variant:normal;font-weight:normal;font-size:20.6842px;font-family:CinzelDecorative;-inkscape-font-specification:CinzelDecorative-Regular;writing-mode:lr-tb;fill:#1d1919;fill-opacity:1;fill-rule:nonzero;stroke:none"
           id="text254"><tspan
             x="0"
             y="0"
             id="tspan252">1</tspan></text><text
           transform="matrix(0.95301,0.302938,0.302938,-0.95301,676.886,153.135)"
           style="font-variant:normal;font-weight:normal;font-size:20.6842px;font-family:CinzelDecorative;-inkscape-font-specification:CinzelDecorative-Regular;writing-mode:lr-tb;fill:#1d1919;fill-opacity:1;fill-rule:nonzero;stroke:none"
           id="text258"><tspan
             x="0"
             y="0"
             id="tspan256">9</tspan></text><text
           transform="matrix(0.906115,0.42303,0.42303,-0.906115,689.411,157.266)"
           style="font-variant:normal;font-weight:normal;font-size:20.6842px;font-family:CinzelDecorative;-inkscape-font-specification:CinzelDecorative-Regular;writing-mode:lr-tb;fill:#1d1919;fill-opacity:1;fill-rule:nonzero;stroke:none"
           id="text262"><tspan
             x="0"
             y="0"
             id="tspan260">7</tspan></text><text
           transform="matrix(0.838857,0.544352,0.544352,-0.838857,700.128,162.246)"
           style="font-variant:normal;font-weight:normal;font-size:20.6842px;font-family:CinzelDecorative;-inkscape-font-specification:CinzelDecorative-Regular;writing-mode:lr-tb;fill:#1d1919;fill-opacity:1;fill-rule:nonzero;stroke:none"
           id="text266"><tspan
             x="0"
             y="0"
             id="tspan264">0</tspan></text></g><path
         d="m 2234.03,2328.43 h -1222.3 c 0,337.53 273.61,611.15 611.15,611.15 337.54,0 611.15,-273.62 611.15,-611.15"
         style="fill:#f2ddbf;fill-opacity:1;fill-rule:nonzero;stroke:none"
         id="path268" /><path
         d="m 2234.03,2328.43 h -1222.3 c 0,337.53 273.61,611.15 611.15,611.15 337.54,0 611.15,-273.62 611.15,-611.15 z"
         style="fill:none;stroke:#1c1919;stroke-width:50;stroke-linecap:butt;stroke-linejoin:miter;stroke-miterlimit:10;stroke-dasharray:none;stroke-opacity:1"
         id="path270" /><path
         d="m 1011.73,2330.81 h 1222.3 c 0,-337.54 -273.61,-611.14 -611.16,-611.14 -337.53,0 -611.14,273.6 -611.14,611.14"
         style="fill:#f2ddbf;fill-opacity:1;fill-rule:nonzero;stroke:none"
         id="path272" /><path
         d="m 1011.73,2330.81 h 1222.3 c 0,-337.54 -273.61,-611.14 -611.16,-611.14 -337.53,0 -611.14,273.6 -611.14,611.14 z"
         style="fill:none;stroke:#1c1919;stroke-width:50;stroke-linecap:butt;stroke-linejoin:miter;stroke-miterlimit:10;stroke-dasharray:none;stroke-opacity:1"
         id="path274" /><path
         d="m 1493.86,2685.37 c -25.9,68.02 -68.75,73.08 -97.86,61.29 -28.46,-13.32 -53.9,-48.16 -21.67,-113.41 32.87,-66.54 87.22,-85.18 87.22,-85.18 l 139.81,-335.77 24.33,10.13 24.34,10.16 -153.08,330.9 c 0,0 23.29,52.52 -3.09,121.88"
         style="fill:#1d1919;fill-opacity:1;fill-rule:nonzero;stroke:none"
         id="path276" /><path
         d="m 1736.85,2637.98 c -16.72,-46.11 4.16,-73.17 4.16,-73.17 l -142.48,-332.94 23.78,-9.77 23.77,-9.8 131.29,337.07 c 0,0 33.97,3.76 55.55,47.81 21.58,44.07 35.2,130.34 35.68,141.63 0,0 -38.61,-104.43 -53.21,-98.21 -14.62,6.2 27.94,113.76 25.87,109.82 1.39,4.21 -46.41,-101.1 -61.04,-94.91 -14.62,6.22 33.73,106.51 33.73,106.51 -7.81,-8.21 -60.41,-77.92 -77.1,-124.04"
         style="fill:#1d1919;fill-opacity:1;fill-rule:nonzero;stroke:none"
         id="path278" /><path
         d="m 1605.36,2230.36 c 0,0 -17.5,523.36 3.5,560.61 20.99,37.25 81.26,-28.25 83.28,-110.33 2.03,-82.08 -50,-162.35 -50,-162.35 l 0.27,-288.16 -37.05,0.23"
         style="fill:#1d1919;fill-opacity:1;fill-rule:nonzero;stroke:none"
         id="path280" /><g
         id="g282"
         transform="scale(10)"><text
           transform="matrix(0.902686,-0.430299,-0.430299,-0.902686,135.665,192.234)"
           style="font-variant:normal;font-weight:normal;font-size:16.8303px;font-family:CACChampagne;-inkscape-font-specification:CACChampagne;writing-mode:lr-tb;fill:#100f0d;fill-opacity:1;fill-rule:nonzero;stroke:none"
           id="text286"><tspan
             x="0"
             y="0"
             id="tspan284">G</tspan></text><text
           transform="matrix(0.962907,-0.269835,-0.269835,-0.962907,146.234,187.547)"
           style="font-variant:normal;font-weight:normal;font-size:16.8304px;font-family:CACChampagne;-inkscape-font-specification:CACChampagne;writing-mode:lr-tb;fill:#100f0d;fill-opacity:1;fill-rule:nonzero;stroke:none"
           id="text290"><tspan
             x="0"
             y="0"
             id="tspan288">o</tspan></text><text
           transform="matrix(0.987186,-0.159573,-0.159573,-0.987186,151.719,186.054)"
           style="font-variant:normal;font-weight:normal;font-size:16.8304px;font-family:CACChampagne;-inkscape-font-specification:CACChampagne;writing-mode:lr-tb;fill:#100f0d;fill-opacity:1;fill-rule:nonzero;stroke:none"
           id="text294"><tspan
             x="0"
             y="0"
             id="tspan292">o</tspan></text><text
           transform="matrix(0.999121,-0.0419151,-0.0419151,-0.999121,157.387,185.171)"
           style="font-variant:normal;font-weight:normal;font-size:16.8304px;font-family:CACChampagne;-inkscape-font-specification:CACChampagne;writing-mode:lr-tb;fill:#100f0d;fill-opacity:1;fill-rule:nonzero;stroke:none"
           id="text298"><tspan
             x="0"
             y="0"
             id="tspan296">d</tspan></text><text
           transform="matrix(0.987555,0.157275,0.157275,-0.987555,168.305,185.323)"
           style="font-variant:normal;font-weight:normal;font-size:16.8304px;font-family:CACChampagne;-inkscape-font-specification:CACChampagne;writing-mode:lr-tb;fill:#100f0d;fill-opacity:1;fill-rule:nonzero;stroke:none"
           id="text302"><tspan
             x="0"
             y="0"
             id="tspan300">f</tspan></text><text
           transform="matrix(0.966288,0.257464,0.257464,-0.966288,172.965,186.077)"
           style="font-variant:normal;font-weight:normal;font-size:16.8304px;font-family:CACChampagne;-inkscape-font-specification:CACChampagne;writing-mode:lr-tb;fill:#100f0d;fill-opacity:1;fill-rule:nonzero;stroke:none"
           id="text306"><tspan
             x="0"
             y="0"
             id="tspan304">o</tspan></text><text
           transform="matrix(0.930989,0.365048,0.365048,-0.930989,178.454,187.583)"
           style="font-variant:normal;font-weight:normal;font-size:16.8304px;font-family:CACChampagne;-inkscape-font-specification:CACChampagne;writing-mode:lr-tb;fill:#100f0d;fill-opacity:1;fill-rule:nonzero;stroke:none"
           id="text310"><tspan
             x="0"
             y="0"
             id="tspan308">o</tspan></text><text
           transform="matrix(0.880879,0.473342,0.473342,-0.880879,183.783,189.707)"
           style="font-variant:normal;font-weight:normal;font-size:16.8304px;font-family:CACChampagne;-inkscape-font-specification:CACChampagne;writing-mode:lr-tb;fill:#100f0d;fill-opacity:1;fill-rule:nonzero;stroke:none"
           id="text314"><tspan
             x="0"
             y="0"
             id="tspan312">d</tspan></text></g><path
         d="M 2164.81,2336.62 H 1080.95 c 0,299.3 242.61,541.92 541.92,541.92 299.31,0 541.94,-242.62 541.94,-541.92 z"
         style="fill:none;stroke:#1d1918;stroke-width:30;stroke-linecap:butt;stroke-linejoin:miter;stroke-miterlimit:10;stroke-dasharray:none;stroke-opacity:1"
         id="path316" /><path
         d="m 1080.95,2270.44 h 177.02"
         style="fill:none;stroke:#1d1918;stroke-width:30;stroke-linecap:round;stroke-linejoin:miter;stroke-miterlimit:10;stroke-dasharray:none;stroke-opacity:1"
         id="path318" /><path
         d="m 1103.02,2212.01 h 132.89"
         style="fill:none;stroke:#1d1918;stroke-width:30;stroke-linecap:round;stroke-linejoin:miter;stroke-miterlimit:10;stroke-dasharray:none;stroke-opacity:1"
         id="path320" /><path
         d="m 1123.76,2153.57 h 91.39"
         style="fill:none;stroke:#1d1918;stroke-width:30;stroke-linecap:round;stroke-linejoin:miter;stroke-miterlimit:10;stroke-dasharray:none;stroke-opacity:1"
         id="path322" /><path
         d="m 1987.78,2270.44 h 177.03"
         style="fill:none;stroke:#1d1918;stroke-width:30;stroke-linecap:round;stroke-linejoin:miter;stroke-miterlimit:10;stroke-dasharray:none;stroke-opacity:1"
         id="path324" /><path
         d="m 2009.85,2212.01 h 132.89"
         style="fill:none;stroke:#1d1918;stroke-width:30;stroke-linecap:round;stroke-linejoin:miter;stroke-miterlimit:10;stroke-dasharray:none;stroke-opacity:1"
         id="path326" /><path
         d="m 2030.59,2153.57 h 91.39"
         style="fill:none;stroke:#1d1918;stroke-width:30;stroke-linecap:round;stroke-linejoin:miter;stroke-miterlimit:10;stroke-dasharray:none;stroke-opacity:1"
         id="path328" /><path
         d="m 2086.18,2035 c -95.43,-154.79 -266.5,-257.98 -461.69,-257.98 -197.41,0 -370.15,105.56 -464.91,263.28"
         style="fill:none;stroke:#1d1918;stroke-width:30;stroke-linecap:round;stroke-linejoin:miter;stroke-miterlimit:10;stroke-dasharray:none;stroke-opacity:1"
         id="path330" /><path
         d="m 1650.46,2335.61 h -55.16 c -8.99,13.55 -132.08,194.58 -294.26,194.58 v -253.81 -271.49 c 162.19,0 285.3,181.06 294.26,194.59 h 55.16 c 8.96,-13.53 132.07,-194.59 294.27,-194.59 v 271.49 253.81 c -162.18,0 -285.28,-181.03 -294.27,-194.58"
         style="fill:#302627;fill-opacity:1;fill-rule:nonzero;stroke:none"
         id="path332" /><path
         d="m 2809.23,295.23 c 0,-7.031 1.1,-13 3.28,-17.941 2.19,-4.949 5.18,-8.68 8.97,-11.16 3.81,-2.52 7.95,-3.77 12.45,-3.77 4.56,0 8.72,1.192 12.49,3.582 3.77,2.36 6.77,6.008 9.02,10.899 2.25,4.922 3.37,11.051 3.37,18.39 0,6.899 -1.12,12.84 -3.37,17.821 -2.25,4.961 -5.28,8.769 -9.12,11.398 -3.83,2.621 -8.02,3.93 -12.58,3.93 -4.75,0 -8.99,-1.348 -12.73,-4.039 -3.73,-2.68 -6.63,-6.551 -8.69,-11.59 -2.06,-5.039 -3.09,-10.879 -3.09,-17.52 z m 51.01,-38.078 v 2.559 c -3.49,-3.992 -6.92,-7.231 -10.31,-9.731 -3.38,-2.5 -7.06,-4.41 -11.02,-5.699 -3.95,-1.312 -8.27,-1.961 -12.96,-1.961 -6.21,0 -11.96,1.309 -17.24,3.95 -5.29,2.621 -9.86,6.39 -13.72,11.25 -3.87,4.878 -6.8,10.601 -8.79,17.191 -1.99,6.598 -2.99,13.711 -2.99,21.359 0,16.219 3.96,28.871 11.87,37.91 7.92,9.051 18.33,13.579 31.25,13.579 7.47,0 13.77,-1.289 18.9,-3.829 5.13,-2.582 10.13,-6.519 15.01,-11.839 v 38.289 c 0,5.312 1.05,9.332 3.18,12.05 2.12,2.731 5.14,4.079 9.07,4.079 3.93,0 6.94,-1.25 9.07,-3.75 2.12,-2.5 3.18,-6.168 3.18,-11.059 V 257.152 c 0,-4.941 -1.13,-8.652 -3.42,-11.113 -2.28,-2.469 -5.22,-3.719 -8.83,-3.719 -3.54,0 -6.47,1.289 -8.79,3.852 -2.31,2.578 -3.46,6.226 -3.46,10.98"
         style="fill:#d9c0a6;fill-opacity:1;fill-rule:nonzero;stroke:none"
         id="path334" /><path
         d="m 2923.86,303.402 h 47.02 c -0.63,8.868 -3.03,15.508 -7.17,19.899 -4.15,4.398 -9.61,6.597 -16.39,6.597 -6.46,0 -11.76,-2.218 -15.9,-6.699 -4.15,-4.449 -6.66,-11.07 -7.56,-19.797 z m 50.72,-14.73 h -50.72 c 0.07,-5.883 1.25,-11.07 3.57,-15.563 2.3,-4.519 5.38,-7.898 9.21,-10.179 3.83,-2.289 8.06,-3.399 12.68,-3.399 3.1,0 5.93,0.348 8.5,1.078 2.57,0.743 5.05,1.852 7.46,3.411 2.41,1.55 4.62,3.23 6.64,5 2.03,1.781 4.65,4.179 7.88,7.23 1.33,1.129 3.24,1.699 5.71,1.699 2.66,0 4.81,-0.738 6.45,-2.187 1.64,-1.461 2.48,-3.512 2.48,-6.172 0,-2.34 -0.93,-5.078 -2.76,-8.219 -1.85,-3.133 -4.61,-6.141 -8.31,-9.031 -3.72,-2.871 -8.36,-5.25 -13.97,-7.16 -5.6,-1.899 -12.04,-2.86 -19.33,-2.86 -16.64,0 -29.6,4.77 -38.84,14.262 -9.24,9.488 -13.86,22.379 -13.86,38.648 0,7.661 1.13,14.77 3.41,21.309 2.29,6.57 5.61,12.191 9.97,16.883 4.37,4.687 9.75,8.258 16.15,10.777 6.4,2.5 13.49,3.731 21.28,3.731 10.13,0 18.82,-2.11 26.06,-6.41 7.26,-4.25 12.69,-9.778 16.3,-16.559 3.6,-6.781 5.41,-13.691 5.41,-20.699 0,-6.532 -1.87,-10.742 -5.6,-12.703 -3.73,-1.907 -8.99,-2.887 -15.77,-2.887"
         style="fill:#d9c0a6;fill-opacity:1;fill-rule:nonzero;stroke:none"
         id="path336" /><path
         d="m 3092.72,276.25 c 0,-7.168 -1.73,-13.301 -5.22,-18.398 -3.48,-5.102 -8.62,-8.961 -15.43,-11.582 -6.81,-2.641 -15.09,-3.95 -24.84,-3.95 -9.31,0 -17.28,1.43 -23.93,4.282 -6.65,2.847 -11.56,6.429 -14.72,10.687 -3.17,4.27 -4.75,8.551 -4.75,12.871 0,2.852 1,5.289 3.04,7.301 2.02,2.027 4.59,3.051 7.7,3.051 2.71,0 4.8,-0.672 6.26,-1.992 1.46,-1.329 2.85,-3.211 4.17,-5.61 2.66,-4.629 5.85,-8.07 9.56,-10.351 3.7,-2.289 8.74,-3.418 15.15,-3.418 5.19,0 9.45,1.148 12.77,3.461 3.32,2.32 4.98,4.957 4.98,7.949 0,4.551 -1.72,7.871 -5.17,9.961 -3.46,2.09 -9.14,4.078 -17.06,5.988 -8.92,2.211 -16.19,4.539 -21.79,6.98 -5.61,2.422 -10.09,5.641 -13.44,9.629 -3.35,4 -5.03,8.903 -5.03,14.723 0,5.199 1.54,10.098 4.65,14.727 3.1,4.613 7.68,8.3 13.73,11.05 6.04,2.782 13.33,4.141 21.88,4.141 6.72,0 12.75,-0.68 18.1,-2.09 5.35,-1.379 9.82,-3.262 13.39,-5.601 3.58,-2.348 6.3,-4.938 8.17,-7.77 1.86,-2.859 2.8,-5.648 2.8,-8.379 0,-2.969 -1,-5.41 -2.99,-7.308 -1.99,-1.891 -4.82,-2.852 -8.5,-2.852 -2.66,0 -4.93,0.762 -6.79,2.289 -1.87,1.52 -4,3.781 -6.41,6.832 -1.96,2.52 -4.26,4.551 -6.93,6.078 -2.66,1.52 -6.27,2.281 -10.84,2.281 -4.68,0 -8.57,-1 -11.68,-3.011 -3.1,-1.969 -4.65,-4.449 -4.65,-7.438 0,-2.73 1.14,-4.961 3.41,-6.699 2.29,-1.742 5.36,-3.18 9.23,-4.312 3.86,-1.141 9.17,-2.52 15.96,-4.18 8.03,-1.981 14.59,-4.32 19.7,-7.039 5.09,-2.711 8.95,-5.93 11.59,-9.641 2.63,-3.699 3.93,-7.91 3.93,-12.66"
         style="fill:#d9c0a6;fill-opacity:1;fill-rule:nonzero;stroke:none"
         id="path338" /><path
         d="m 3132.04,333.031 v -74.922 c 0,-5.199 -1.23,-9.148 -3.71,-11.8 -2.47,-2.661 -5.6,-3.989 -9.4,-3.989 -3.8,0 -6.89,1.371 -9.26,4.09 -2.38,2.731 -3.56,6.621 -3.56,11.699 v 74.18 c 0,5.109 1.18,8.981 3.56,11.582 2.37,2.59 5.46,3.879 9.26,3.879 3.8,0 6.93,-1.289 9.4,-3.879 2.48,-2.601 3.71,-6.211 3.71,-10.84 z m -12.83,26.77 c -3.6,0 -6.69,1.121 -9.25,3.34 -2.57,2.211 -3.85,5.339 -3.85,9.398 0,3.691 1.31,6.703 3.94,9.082 2.63,2.379 5.69,3.559 9.16,3.559 3.36,0 6.34,-1.078 8.93,-3.231 2.6,-2.16 3.9,-5.289 3.9,-9.41 0,-3.988 -1.27,-7.109 -3.81,-9.359 -2.53,-2.239 -5.53,-3.379 -9.02,-3.379"
         style="fill:#d9c0a6;fill-opacity:1;fill-rule:nonzero;stroke:none"
         id="path340" /><path
         d="m 3170.5,295.902 c 0,-10.511 2.29,-18.461 6.88,-23.851 4.59,-5.391 10.53,-8.071 17.81,-8.071 4.3,0 8.37,1.161 12.2,3.461 3.84,2.329 6.95,5.797 9.36,10.45 2.4,4.668 3.61,10.308 3.61,16.949 0,10.57 -2.32,18.808 -6.98,24.691 -4.66,5.899 -10.78,8.848 -18.38,8.848 -7.42,0 -13.35,-2.828 -17.81,-8.457 -4.47,-5.621 -6.69,-13.652 -6.69,-24.02 z m 75.13,32.848 v -75.309 c 0,-8.621 -0.93,-16.019 -2.77,-22.23 -1.82,-6.191 -4.77,-11.332 -8.83,-15.391 -4.05,-4.039 -9.35,-7.05 -15.9,-9 -6.55,-1.98 -14.71,-2.949 -24.46,-2.949 -8.93,0 -16.91,1.25 -23.94,3.75 -7.02,2.5 -12.43,5.719 -16.24,9.68 -3.79,3.949 -5.7,8.031 -5.7,12.211 0,3.168 1.08,5.738 3.24,7.738 2.14,1.992 4.75,2.98 7.78,2.98 3.8,0 7.12,-1.679 9.97,-5.019 1.39,-1.711 2.83,-3.449 4.32,-5.191 1.49,-1.739 3.15,-3.219 4.94,-4.469 1.81,-1.211 3.98,-2.129 6.51,-2.742 2.53,-0.579 5.45,-0.899 8.74,-0.899 6.71,0 11.92,0.922 15.63,2.801 3.7,1.871 6.3,4.488 7.78,7.848 1.49,3.343 2.36,6.929 2.62,10.761 0.25,3.852 0.44,10 0.56,18.5 -3.99,-5.59 -8.59,-9.851 -13.82,-12.761 -5.22,-2.911 -11.45,-4.348 -18.66,-4.348 -8.67,0 -16.25,2.199 -22.75,6.641 -6.49,4.429 -11.48,10.636 -14.95,18.609 -3.49,7.988 -5.22,17.191 -5.22,27.641 0,7.789 1.05,14.82 3.17,21.089 2.13,6.27 5.15,11.559 9.07,15.86 3.93,4.32 8.46,7.558 13.58,9.75 5.13,2.16 10.76,3.258 16.91,3.258 7.34,0 13.71,-1.411 19.09,-4.219 5.38,-2.828 10.39,-7.25 15.01,-13.258 v 3.527 c 0,4.5 1.1,7.973 3.32,10.45 2.22,2.461 5.07,3.691 8.55,3.691 5,0 8.32,-1.641 9.97,-4.879 1.65,-3.262 2.48,-7.973 2.48,-14.121"
         style="fill:#d9c0a6;fill-opacity:1;fill-rule:nonzero;stroke:none"
         id="path342" /><path
         d="m 3286.84,333.422 v -3.152 c 4.55,6.019 9.54,10.429 14.95,13.269 5.42,2.813 11.63,4.211 18.66,4.211 6.84,0 12.95,-1.48 18.34,-4.469 5.38,-2.972 9.41,-7.191 12.05,-12.621 1.72,-3.16 2.83,-6.601 3.33,-10.25 0.51,-3.691 0.77,-8.359 0.77,-14.058 v -48.243 c 0,-5.199 -1.19,-9.148 -3.57,-11.8 -2.37,-2.661 -5.46,-3.989 -9.26,-3.989 -3.86,0 -6.99,1.371 -9.4,4.09 -2.41,2.731 -3.61,6.621 -3.61,11.699 v 43.2 c 0,8.55 -1.19,15.101 -3.56,19.613 -2.38,4.527 -7.11,6.789 -14.21,6.789 -4.61,0 -8.83,-1.359 -12.62,-4.121 -3.8,-2.77 -6.59,-6.559 -8.36,-11.36 -1.27,-3.871 -1.9,-11.082 -1.9,-21.64 v -32.481 c 0,-5.257 -1.23,-9.218 -3.66,-11.839 -2.43,-2.641 -5.58,-3.95 -9.44,-3.95 -3.75,0 -6.81,1.371 -9.22,4.09 -2.4,2.731 -3.61,6.621 -3.61,11.699 v 74.922 c 0,4.938 1.07,8.629 3.23,11.071 2.15,2.437 5.09,3.648 8.83,3.648 2.28,0 4.34,-0.52 6.18,-1.621 1.83,-1.07 3.31,-2.688 4.42,-4.82 1.1,-2.168 1.66,-4.809 1.66,-7.887"
         style="fill:#d9c0a6;fill-opacity:1;fill-rule:nonzero;stroke:none"
         id="path344" /><path
         d="m 3393.87,303.402 h 47.01 c -0.63,8.868 -3.02,15.508 -7.17,19.899 -4.15,4.398 -9.61,6.597 -16.38,6.597 -6.47,0 -11.77,-2.218 -15.92,-6.699 -4.15,-4.449 -6.65,-11.07 -7.54,-19.797 z m 50.71,-14.73 h -50.71 c 0.07,-5.883 1.24,-11.07 3.56,-15.563 2.31,-4.519 5.38,-7.898 9.22,-10.179 3.81,-2.289 8.05,-3.399 12.67,-3.399 3.1,0 5.93,0.348 8.51,1.078 2.55,0.743 5.04,1.852 7.45,3.411 2.4,1.55 4.61,3.23 6.65,5 2.02,1.781 4.65,4.179 7.88,7.23 1.33,1.129 3.23,1.699 5.7,1.699 2.66,0 4.81,-0.738 6.46,-2.187 1.64,-1.461 2.46,-3.512 2.46,-6.172 0,-2.34 -0.91,-5.078 -2.75,-8.219 -1.84,-3.133 -4.61,-6.141 -8.32,-9.031 -3.7,-2.871 -8.35,-5.25 -13.95,-7.16 -5.61,-1.899 -12.05,-2.86 -19.33,-2.86 -16.65,0 -29.6,4.77 -38.85,14.262 -9.24,9.488 -13.87,22.379 -13.87,38.648 0,7.661 1.15,14.77 3.42,21.309 2.28,6.57 5.61,12.191 9.98,16.883 4.37,4.687 9.75,8.258 16.14,10.777 6.4,2.5 13.5,3.731 21.28,3.731 10.13,0 18.81,-2.11 26.06,-6.41 7.26,-4.25 12.69,-9.778 16.3,-16.559 3.61,-6.781 5.42,-13.691 5.42,-20.699 0,-6.532 -1.87,-10.742 -5.61,-12.703 -3.73,-1.907 -8.99,-2.887 -15.77,-2.887"
         style="fill:#d9c0a6;fill-opacity:1;fill-rule:nonzero;stroke:none"
         id="path346" /><path
         d="m 3499.28,295.23 c 0,-7.031 1.09,-13 3.27,-17.941 2.19,-4.949 5.18,-8.68 8.99,-11.16 3.79,-2.52 7.94,-3.77 12.43,-3.77 4.57,0 8.73,1.192 12.49,3.582 3.77,2.36 6.78,6.008 9.02,10.899 2.25,4.922 3.38,11.051 3.38,18.39 0,6.899 -1.13,12.84 -3.38,17.821 -2.24,4.961 -5.28,8.769 -9.11,11.398 -3.84,2.621 -8.03,3.93 -12.59,3.93 -4.74,0 -8.99,-1.348 -12.73,-4.039 -3.73,-2.68 -6.63,-6.551 -8.69,-11.59 -2.06,-5.039 -3.08,-10.879 -3.08,-17.52 z m 51,-38.078 v 2.559 c -3.48,-3.992 -6.92,-7.231 -10.3,-9.731 -3.39,-2.5 -7.06,-4.41 -11.02,-5.699 -3.95,-1.312 -8.28,-1.961 -12.96,-1.961 -6.21,0 -11.96,1.309 -17.24,3.95 -5.29,2.621 -9.86,6.39 -13.73,11.25 -3.86,4.878 -6.79,10.601 -8.78,17.191 -2,6.598 -2.99,13.711 -2.99,21.359 0,16.219 3.95,28.871 11.87,37.91 7.91,9.051 18.33,13.579 31.25,13.579 7.47,0 13.77,-1.289 18.9,-3.829 5.13,-2.582 10.13,-6.519 15,-11.839 v 38.289 c 0,5.312 1.06,9.332 3.19,12.05 2.11,2.731 5.14,4.079 9.07,4.079 3.92,0 6.94,-1.25 9.07,-3.75 2.12,-2.5 3.18,-6.168 3.18,-11.059 V 257.152 c 0,-4.941 -1.14,-8.652 -3.42,-11.113 -2.28,-2.469 -5.22,-3.719 -8.83,-3.719 -3.55,0 -6.48,1.289 -8.79,3.852 -2.31,2.578 -3.47,6.226 -3.47,10.98"
         style="fill:#d9c0a6;fill-opacity:1;fill-rule:nonzero;stroke:none"
         id="path348" /><path
         d="m 3657.5,294.469 c 0,-10.328 2.35,-18.239 7.07,-23.789 4.72,-5.539 10.91,-8.321 18.57,-8.321 6.52,0 12.14,2.84 16.86,8.5 4.71,5.68 7.07,13.793 7.07,24.371 0,6.84 -0.97,12.739 -2.94,17.661 -1.97,4.941 -4.75,8.769 -8.35,11.449 -3.62,2.691 -7.83,4.039 -12.64,4.039 -4.94,0 -9.35,-1.348 -13.2,-4.039 -3.87,-2.68 -6.9,-6.59 -9.12,-11.68 -2.22,-5.078 -3.32,-11.16 -3.32,-18.191 z m -1.24,77.031 v -39.609 c 4.87,5.058 9.84,8.949 14.91,11.648 5.07,2.672 11.34,4.02 18.81,4.02 8.61,0 16.16,-2.028 22.66,-6.11 6.48,-4.109 11.51,-10.019 15.09,-17.777 3.58,-7.731 5.38,-16.953 5.38,-27.602 0,-7.851 -1.01,-15.031 -3,-21.601 -1.99,-6.539 -4.9,-12.219 -8.69,-17.028 -3.8,-4.82 -8.41,-8.55 -13.82,-11.171 -5.42,-2.641 -11.38,-3.95 -17.9,-3.95 -4,0 -7.75,0.469 -11.26,1.43 -3.52,0.961 -6.51,2.191 -8.98,3.75 -2.46,1.539 -4.57,3.141 -6.31,4.801 -1.74,1.648 -4.04,4.129 -6.89,7.41 v -2.559 c 0,-4.882 -1.17,-8.582 -3.52,-11.082 -2.33,-2.5 -5.31,-3.75 -8.92,-3.75 -3.67,0 -6.6,1.25 -8.79,3.75 -2.18,2.5 -3.27,6.2 -3.27,11.082 v 113.219 c 0,5.25 1.06,9.219 3.17,11.918 2.13,2.672 5.09,4.02 8.89,4.02 3.99,0 7.06,-1.27 9.21,-3.829 2.15,-2.582 3.23,-6.23 3.23,-10.98"
         style="fill:#d9c0a6;fill-opacity:1;fill-rule:nonzero;stroke:none"
         id="path350" /><path
         d="m 3766.72,239.102 2.37,5.796 -31.91,80.352 c -1.96,4.609 -2.95,7.969 -2.95,10.059 0,2.23 0.57,4.281 1.71,6.171 1.14,1.899 2.71,3.418 4.7,4.559 2,1.152 4.07,1.711 6.23,1.711 3.73,0 6.54,-1.191 8.45,-3.551 1.91,-2.379 3.58,-5.777 5.03,-10.219 l 21.94,-63.82 20.81,59.371 c 1.64,4.789 3.13,8.578 4.46,11.289 1.33,2.731 2.73,4.571 4.22,5.512 1.49,0.957 3.6,1.418 6.32,1.418 1.97,0 3.85,-0.5 5.65,-1.559 1.81,-1.05 3.2,-2.461 4.18,-4.242 0.98,-1.75 1.48,-3.629 1.48,-5.578 -0.26,-1.211 -0.66,-2.91 -1.24,-5.141 -0.58,-2.21 -1.27,-4.468 -2.09,-6.742 l -33.81,-88.527 c -2.92,-7.781 -5.77,-13.891 -8.55,-18.32 -2.79,-4.442 -6.47,-7.852 -11.07,-10.219 -4.59,-2.383 -10.78,-3.551 -18.57,-3.551 -7.59,0 -13.29,0.82 -17.08,2.461 -3.82,1.66 -5.71,4.668 -5.71,9.02 0,2.968 0.9,5.269 2.71,6.898 1.8,1.602 4.48,2.422 8.02,2.422 1.39,0 2.76,-0.203 4.09,-0.59 1.64,-0.371 3.06,-0.562 4.27,-0.562 2.97,0 5.32,0.441 7.03,1.339 1.71,0.879 3.24,2.411 4.61,4.61 1.35,2.172 2.93,5.39 4.7,9.633"
         style="fill:#d9c0a6;fill-opacity:1;fill-rule:nonzero;stroke:none"
         id="path352" /><path
         d="m 4142.34,345.512 h 6.2 v 7.789 c 0,8.148 0.99,14.57 3.06,19.379 2.03,4.781 5.55,8.261 10.47,10.441 4.9,2.168 11.62,3.27 20.16,3.27 15.19,0 22.73,-3.68 22.73,-11.161 0,-2.378 -0.8,-4.429 -2.4,-6.148 -1.54,-1.684 -3.44,-2.562 -5.59,-2.562 -0.99,0 -2.77,0.199 -5.27,0.609 -2.36,0.332 -4.51,0.551 -6.23,0.551 -4.67,0 -7.66,-1.41 -9.04,-4.141 -1.27,-2.758 -1.96,-6.699 -1.96,-11.859 v -6.168 h 6.33 c 9.9,0 14.81,-2.973 14.81,-8.953 0,-4.2 -1.27,-6.907 -3.93,-8.039 -2.62,-1.161 -6.23,-1.719 -10.88,-1.719 h -6.33 V 258.09 c 0,-5.098 -1.21,-9.008 -3.69,-11.68 -2.42,-2.719 -5.55,-4.07 -9.43,-4.07 -3.67,0 -6.7,1.351 -9.18,4.07 -2.44,2.672 -3.63,6.582 -3.63,11.68 v 68.711 h -7.15 c -3.89,0 -6.82,0.84 -8.93,2.609 -2.09,1.719 -3.14,4.012 -3.14,6.781 0,6.25 4.33,9.321 13.02,9.321"
         style="fill:#d9c0a6;fill-opacity:1;fill-rule:nonzero;stroke:none"
         id="path354" /><path
         d="m 4227.25,279.77 v -21.68 c 0,-5.238 -1.33,-9.18 -3.75,-11.801 -2.46,-2.66 -5.59,-3.949 -9.38,-3.949 -3.81,0 -6.87,1.308 -9.26,4.012 -2.36,2.628 -3.61,6.558 -3.61,11.738 v 72.219 c 0,11.66 4.2,17.5 12.62,17.5 4.33,0 7.42,-1.348 9.33,-4.079 1.9,-2.73 2.95,-6.742 3.17,-12.089 3.08,5.347 6.25,9.359 9.49,12.089 3.32,2.731 7.62,4.079 13.09,4.079 5.48,0 10.72,-1.348 15.85,-4.079 5.16,-2.73 7.72,-6.371 7.72,-10.859 0,-3.141 -1.11,-5.801 -3.26,-7.812 -2.21,-2.09 -4.55,-3.11 -7.07,-3.11 -1,0 -3.3,0.633 -6.92,1.801 -3.65,1.129 -6.89,1.719 -9.63,1.719 -3.8,0 -6.93,-1.02 -9.31,-2.969 -2.42,-2.051 -4.32,-4.98 -5.65,-8.871 -1.29,-3.938 -2.18,-8.649 -2.73,-14.039 -0.49,-5.43 -0.7,-12.031 -0.7,-19.82"
         style="fill:#d9c0a6;fill-opacity:1;fill-rule:nonzero;stroke:none"
         id="path356" /><path
         d="m 4295.7,303.441 h 47.01 c -0.62,8.848 -2.96,15.508 -7.12,19.86 -4.18,4.429 -9.59,6.597 -16.41,6.597 -6.47,0 -11.78,-2.187 -15.92,-6.679 -4.14,-4.469 -6.68,-11.047 -7.56,-19.778 m 50.75,-14.75 h -50.75 c 0.1,-5.882 1.25,-11.089 3.56,-15.582 2.34,-4.461 5.39,-7.859 9.24,-10.16 3.84,-2.289 8.04,-3.398 12.69,-3.398 3.11,0 5.92,0.328 8.5,1.109 2.54,0.692 5.04,1.86 7.44,3.399 2.42,1.531 4.61,3.191 6.64,5 2.03,1.761 4.67,4.16 7.91,7.191 1.35,1.129 3.24,1.742 5.68,1.742 2.68,0 4.81,-0.742 6.49,-2.211 1.66,-1.48 2.44,-3.511 2.44,-6.172 0,-2.359 -0.9,-5.078 -2.68,-8.199 -1.87,-3.172 -4.63,-6.16 -8.36,-9.07 -3.75,-2.852 -8.39,-5.27 -13.98,-7.129 -5.59,-1.91 -12.05,-2.871 -19.32,-2.871 -16.7,0 -29.63,4.73 -38.86,14.219 -9.24,9.531 -13.91,22.421 -13.91,38.691 0,7.66 1.17,14.789 3.48,21.352 2.24,6.578 5.56,12.148 9.98,16.878 4.35,4.7 9.7,8.282 16.13,10.782 6.37,2.48 13.46,3.73 21.27,3.73 10.12,0 18.81,-2.133 26.07,-6.453 7.23,-4.238 12.74,-9.758 16.29,-16.539 3.62,-6.82 5.41,-13.691 5.41,-20.738 0,-6.492 -1.87,-10.711 -5.6,-12.66 -3.73,-1.93 -8.99,-2.911 -15.76,-2.911"
         style="fill:#d9c0a6;fill-opacity:1;fill-rule:nonzero;stroke:none"
         id="path358" /><path
         d="m 4403.59,303.441 h 47.02 c -0.65,8.848 -3.05,15.508 -7.15,19.86 -4.22,4.429 -9.63,6.597 -16.43,6.597 -6.46,0 -11.76,-2.187 -15.94,-6.679 -4.12,-4.469 -6.66,-11.047 -7.5,-19.778 m 50.73,-14.75 h -50.73 c 0.06,-5.882 1.25,-11.089 3.54,-15.582 2.32,-4.461 5.39,-7.859 9.22,-10.16 3.83,-2.289 8.04,-3.398 12.71,-3.398 3.07,0 5.92,0.328 8.44,1.109 2.6,0.692 5.06,1.86 7.5,3.399 2.42,1.531 4.61,3.191 6.64,5 1.99,1.761 4.65,4.16 7.89,7.191 1.35,1.129 3.26,1.742 5.68,1.742 2.68,0 4.83,-0.742 6.51,-2.211 1.64,-1.48 2.4,-3.511 2.4,-6.172 0,-2.359 -0.88,-5.078 -2.73,-8.199 -1.78,-3.172 -4.55,-6.16 -8.3,-9.07 -3.71,-2.852 -8.4,-5.27 -13.97,-7.129 -5.57,-1.91 -12.07,-2.871 -19.33,-2.871 -16.68,0 -29.59,4.73 -38.87,14.219 -9.24,9.531 -13.89,22.421 -13.89,38.691 0,7.66 1.15,14.789 3.48,21.352 2.26,6.578 5.58,12.148 9.96,16.878 4.35,4.7 9.73,8.282 16.13,10.782 6.39,2.48 13.52,3.73 21.29,3.73 10.1,0 18.79,-2.133 26.13,-6.453 7.21,-4.238 12.66,-9.758 16.21,-16.539 3.6,-6.82 5.45,-13.691 5.45,-20.738 0,-6.492 -1.91,-10.711 -5.6,-12.66 -3.75,-1.93 -9.01,-2.911 -15.76,-2.911"
         style="fill:#d9c0a6;fill-opacity:1;fill-rule:nonzero;stroke:none"
         id="path360" /><path
         d="m 4561.95,295.551 c 0,6.828 -1.05,12.73 -3.14,17.609 -2.09,4.93 -4.98,8.68 -8.65,11.289 -3.68,2.621 -7.84,3.973 -12.33,3.973 -7.15,0 -13.18,-2.852 -18.08,-8.442 -4.93,-5.66 -7.41,-13.96 -7.41,-24.941 0,-10.25 2.45,-18.32 7.37,-24.059 4.86,-5.73 10.86,-8.582 18.12,-8.582 4.28,0 8.3,1.25 11.97,3.711 3.72,2.539 6.65,6.27 8.83,11.27 2.21,5.019 3.32,11.082 3.32,18.172 m -50.84,37.668 v -3.098 c 4.87,5.988 9.94,10.41 15.26,13.238 5.17,2.832 11.17,4.262 17.81,4.262 7.95,0 15.35,-2.07 22.07,-6.172 6.72,-4.148 11.99,-10.16 15.9,-18.07 3.89,-7.949 5.86,-17.289 5.86,-28.129 0,-7.961 -1.13,-15.309 -3.36,-22.012 -2.25,-6.679 -5.37,-12.258 -9.3,-16.789 -3.92,-4.519 -8.55,-8.027 -13.89,-10.469 -5.42,-2.41 -11.11,-3.64 -17.28,-3.64 -7.38,0 -13.63,1.492 -18.65,4.48 -5.02,2.93 -9.83,7.34 -14.42,13.059 v -38.918 c 0,-11.371 -4.16,-17.109 -12.44,-17.109 -4.9,0 -8.08,1.457 -9.71,4.386 -1.52,2.992 -2.34,7.254 -2.34,12.91 V 333.09 c 0,4.961 1.08,8.59 3.2,11.07 2.15,2.399 5.12,3.649 8.85,3.649 3.69,0 6.66,-1.25 8.97,-3.75 2.34,-2.539 3.47,-6.09 3.47,-10.84"
         style="fill:#d9c0a6;fill-opacity:1;fill-rule:nonzero;stroke:none"
         id="path362" /><path
         d="m 4626.95,333.09 v -75.02 c 0,-5.16 -1.23,-9.09 -3.69,-11.718 -2.5,-2.704 -5.6,-4.012 -9.41,-4.012 -3.81,0 -6.86,1.351 -9.28,4.07 -2.34,2.77 -3.55,6.66 -3.55,11.66 v 74.27 c 0,5.101 1.21,8.949 3.55,11.551 2.42,2.648 5.47,3.918 9.28,3.918 3.81,0 6.91,-1.27 9.41,-3.918 2.46,-2.602 3.69,-6.211 3.69,-10.801 m -12.83,26.789 c -3.63,0 -6.7,1.141 -9.24,3.34 -2.59,2.23 -3.86,5.332 -3.86,9.383 0,3.668 1.3,6.699 3.96,9.097 2.62,2.34 5.66,3.551 9.14,3.551 3.4,0 6.35,-1.07 8.93,-3.199 2.59,-2.192 3.9,-5.332 3.9,-9.449 0,-4.012 -1.27,-7.11 -3.77,-9.364 -2.54,-2.218 -5.54,-3.359 -9.06,-3.359"
         style="fill:#d9c0a6;fill-opacity:1;fill-rule:nonzero;stroke:none"
         id="path364" /><path
         d="m 4710.55,254.18 -22.84,37.66 -14.08,-13.289 V 257.91 c 0,-5 -1.33,-8.828 -3.96,-11.5 -2.58,-2.719 -5.67,-4.07 -9.06,-4.07 -3.99,0 -7.15,1.308 -9.42,4.012 -2.26,2.628 -3.44,6.558 -3.44,11.738 v 110.64 c 0,5.719 1.16,10.102 3.32,13.129 2.23,3.039 5.45,4.532 9.54,4.532 3.98,0 7.12,-1.371 9.49,-4.121 2.34,-2.7 3.53,-6.739 3.53,-12.02 v -62.93 l 29.16,30.629 c 3.62,3.75 6.33,6.41 8.26,7.77 1.9,1.39 4.2,2.09 6.9,2.09 3.26,0 5.94,-1.028 8.16,-3.079 2.11,-2.07 3.21,-4.671 3.21,-7.742 0,-3.789 -3.54,-8.879 -10.55,-15.207 l -13.77,-12.64 26.58,-41.821 c 1.94,-3.14 3.4,-5.449 4.24,-7.07 0.84,-1.578 1.31,-3.18 1.31,-4.609 0,-4.141 -1.15,-7.34 -3.42,-9.762 -2.25,-2.359 -5.23,-3.539 -8.85,-3.539 -3.16,0 -5.64,0.82 -7.34,2.558 -1.7,1.743 -4.06,4.852 -6.97,9.282"
         style="fill:#d9c0a6;fill-opacity:1;fill-rule:nonzero;stroke:none"
         id="path366" /><path
         d="m 4766.91,242.34 c -3.92,0 -7.28,1.269 -10.13,3.808 -2.85,2.5 -4.3,6.063 -4.3,10.653 0,3.859 1.39,7.179 4.1,9.961 2.76,2.789 6.08,4.179 10.08,4.179 3.98,0 7.36,-1.39 10.23,-4.121 2.8,-2.761 4.22,-6.121 4.22,-10.019 0,-4.512 -1.42,-8.071 -4.22,-10.59 -2.87,-2.602 -6.19,-3.871 -9.98,-3.871"
         style="fill:#d9c0a6;fill-opacity:1;fill-rule:nonzero;stroke:none"
         id="path368" /><path
         d="m 4895.9,274.449 c 0,-3.199 -0.98,-6.679 -2.91,-10.347 -1.92,-3.692 -4.88,-7.172 -8.87,-10.493 -3.94,-3.32 -8.91,-6.027 -14.94,-8.039 -6.02,-2.019 -12.81,-3.07 -20.31,-3.07 -16.06,0 -28.58,4.711 -37.58,14.02 -8.95,9.359 -13.46,21.902 -13.46,37.601 0,10.668 2.05,20.059 6.19,28.238 4.09,8.153 10.04,14.481 17.82,18.93 7.79,4.492 17.16,6.703 27.95,6.703 6.73,0 12.87,-0.98 18.51,-2.953 5.61,-1.949 10.33,-4.508 14.26,-7.578 3.87,-3.141 6.85,-6.441 8.89,-9.922 2.07,-3.519 3.08,-6.82 3.08,-9.879 0,-3.07 -1.13,-5.711 -3.44,-7.871 -2.34,-2.148 -5.15,-3.25 -8.38,-3.25 -2.18,0 -3.98,0.57 -5.41,1.66 -1.44,1.141 -3.04,2.91 -4.78,5.43 -3.18,4.793 -6.47,8.422 -9.96,10.781 -3.44,2.449 -7.81,3.641 -13.15,3.641 -7.61,0 -13.82,-2.992 -18.53,-8.992 -4.67,-5.95 -7.03,-14.2 -7.03,-24.528 0,-4.879 0.62,-9.39 1.83,-13.48 1.18,-4.082 2.91,-7.551 5.2,-10.442 2.3,-2.879 5.04,-5.039 8.26,-6.55 3.24,-1.52 6.82,-2.239 10.65,-2.239 5.21,0 9.66,1.192 13.35,3.59 3.77,2.422 7.04,6.07 9.87,11.039 1.58,2.91 3.28,5.172 5.1,6.832 1.81,1.617 4.08,2.481 6.75,2.481 3.17,0 5.8,-1.231 7.85,-3.61 2.11,-2.402 3.19,-5 3.19,-7.703"
         style="fill:#d9c0a6;fill-opacity:1;fill-rule:nonzero;stroke:none"
         id="path370" /><path
         d="m 4981.76,295.059 c 0,10.582 -2.35,18.812 -6.97,24.691 -4.63,5.949 -10.9,8.859 -18.75,8.859 -5.08,0 -9.56,-1.308 -13.42,-3.918 -3.87,-2.621 -6.82,-6.511 -8.91,-11.64 -2.09,-5.141 -3.14,-11.141 -3.14,-17.992 0,-6.797 1.01,-12.68 3.08,-17.739 2.09,-5.109 5.02,-8.98 8.87,-11.66 3.85,-2.668 8.34,-4.039 13.52,-4.039 7.85,0 14.12,2.949 18.75,8.91 4.62,5.918 6.97,14.121 6.97,24.528 m 26.03,0 c 0,-7.7 -1.21,-14.848 -3.55,-21.387 -2.46,-6.52 -5.92,-12.133 -10.49,-16.801 -4.55,-4.68 -10.02,-8.281 -16.33,-10.801 -6.38,-2.461 -13.49,-3.75 -21.38,-3.75 -7.86,0 -14.93,1.289 -21.22,3.828 -6.23,2.5 -11.69,6.153 -16.25,10.821 -4.61,4.773 -8.08,10.351 -10.52,16.781 -2.29,6.43 -3.5,13.539 -3.5,21.309 0,7.851 1.23,15.062 3.58,21.582 2.42,6.539 5.89,12.109 10.39,16.718 4.51,4.633 9.94,8.18 16.3,10.7 6.45,2.5 13.5,3.75 21.22,3.75 7.85,0 14.98,-1.25 21.38,-3.829 6.39,-2.5 11.84,-6.128 16.45,-10.781 4.57,-4.738 8.02,-10.289 10.39,-16.719 2.34,-6.519 3.53,-13.609 3.53,-21.421"
         style="fill:#d9c0a6;fill-opacity:1;fill-rule:nonzero;stroke:none"
         id="path372" /><path
         d="m 5106.72,293.141 v -34.45 c 0,-5.472 -1.21,-9.511 -3.69,-12.281 -2.5,-2.719 -5.73,-4.09 -9.79,-4.09 -3.92,0 -7.13,1.371 -9.51,4.09 -2.46,2.77 -3.71,6.809 -3.71,12.281 V 300 c 0,6.52 -0.22,11.621 -0.64,15.23 -0.45,3.54 -1.68,6.571 -3.62,8.829 -1.97,2.371 -5.1,3.523 -9.31,3.523 -8.5,0 -14.07,-2.891 -16.76,-8.812 -2.68,-5.758 -4.06,-14.118 -4.06,-25.059 v -35.02 c 0,-5.39 -1.24,-9.472 -3.62,-12.242 -2.5,-2.738 -5.68,-4.129 -9.65,-4.129 -3.96,0 -7.16,1.391 -9.66,4.129 -2.52,2.77 -3.77,6.852 -3.77,12.242 v 74.18 c 0,4.899 1.11,8.609 3.36,11.109 2.28,2.579 5.25,3.829 8.88,3.829 3.58,0 6.53,-1.227 8.93,-3.547 2.36,-2.391 3.53,-5.672 3.53,-9.852 v -2.461 c 4.53,5.352 9.36,9.321 14.46,11.821 5.15,2.601 10.82,3.851 17.12,3.851 6.51,0 12.11,-1.312 16.78,-3.891 4.69,-2.621 8.54,-6.558 11.6,-11.781 4.4,5.301 9.09,9.242 14.11,11.821 5,2.562 10.52,3.851 16.62,3.851 7.05,0 13.2,-1.43 18.34,-4.18 5.09,-2.8 8.92,-6.8 11.46,-11.961 2.21,-4.718 3.3,-12.109 3.3,-22.16 v -50.629 c 0,-5.472 -1.21,-9.511 -3.67,-12.281 -2.46,-2.719 -5.74,-4.09 -9.79,-4.09 -3.94,0 -7.14,1.391 -9.64,4.129 -2.5,2.77 -3.77,6.852 -3.77,12.242 v 43.61 c 0,5.59 -0.24,10.019 -0.69,13.379 -0.47,3.359 -1.77,6.191 -3.82,8.461 -2.13,2.289 -5.32,3.441 -9.54,3.441 -3.41,0 -6.66,-1.062 -9.74,-3.07 -3.07,-1.992 -5.47,-4.762 -7.21,-8.121 -1.85,-4.403 -2.83,-12.129 -2.83,-23.25"
         style="fill:#d9c0a6;fill-opacity:1;fill-rule:nonzero;stroke:none"
         id="path374" /><path
         d="m 3899.67,301.332 c -0.02,0.059 -0.02,0.098 -0.02,0.168 0,-0.07 0,-0.109 0.02,-0.168"
         style="fill:#d9c0a6;fill-opacity:1;fill-rule:nonzero;stroke:none"
         id="path376" /><path
         d="m 3900.98,293.051 c 0.02,0 0.02,0 0.03,0 -0.5,2.359 -0.89,4.699 -1.19,7.008 0.3,-2.329 0.69,-4.688 1.16,-7.008"
         style="fill:#d9c0a6;fill-opacity:1;fill-rule:nonzero;stroke:none"
         id="path378" /><path
         d="m 3909.56,268.98 c -0.06,0.102 -0.11,0.219 -0.17,0.34 0.06,-0.121 0.11,-0.238 0.17,-0.34"
         style="fill:#d9c0a6;fill-opacity:1;fill-rule:nonzero;stroke:none"
         id="path380" /><path
         d="m 3908.74,270.59 c -0.22,0.43 -0.44,0.89 -0.65,1.32 0.21,-0.461 0.43,-0.89 0.65,-1.32"
         style="fill:#d9c0a6;fill-opacity:1;fill-rule:nonzero;stroke:none"
         id="path382" /><path
         d="m 3903.39,283.77 c 1.27,-4 2.8,-7.868 4.57,-11.579 -1.8,3.789 -3.3,7.668 -4.54,11.579 -0.01,0 -0.02,0 -0.03,0"
         style="fill:#d9c0a6;fill-opacity:1;fill-rule:nonzero;stroke:none"
         id="path384" /><path
         d="m 4000.04,400.699 c 5.01,0 8.71,-0.41 12.95,-1.109 l 1.21,7.621 c 0,0 -11.71,3.609 -27.11,2.34 l -1.21,4.16 c 4.78,1 8.38,5.25 8.38,10.328 0,5.82 -4.74,10.551 -10.57,10.551 -5.83,0 -10.56,-4.731 -10.56,-10.551 0,-5.078 3.58,-9.328 8.36,-10.328 l 1.34,-4.629 c -16.35,-2.242 -29.35,-8.633 -29.35,-8.633 l 2.3,-7.047 c 9.89,3.297 18.46,5.289 26.24,6.129 7.62,0.821 13.35,1.168 18.02,1.168"
         style="fill:#d9c0a6;fill-opacity:1;fill-rule:nonzero;stroke:none"
         id="path386" /><path
         d="m 3909.37,362.109 0.05,0.082 c 0.39,0.508 0.76,0.969 1.14,1.418 l -3.13,2.27 -4.88,3.551 c -0.27,-0.371 -7.95,-7.442 -14.01,-20.469 -0.26,0.41 -0.56,0.809 -0.9,1.199 -1.82,1.969 -4.36,2.981 -7.59,2.93 -0.04,0 -0.09,0 -0.14,0 -2,0 -3.37,0.66 -4.27,1.48 0.89,1.129 1.43,2.559 1.43,4.121 0,3.688 -3,6.7 -6.69,6.7 -3.69,0 -6.69,-3.012 -6.69,-6.7 0,-3.691 3,-6.679 6.69,-6.679 0.58,0 1.13,0.097 1.67,0.199 1.64,-1.82 4.25,-3.422 8.07,-3.34 1.97,0.02 3.41,-0.492 4.38,-1.551 1.11,-1.211 1.48,-2.961 1.59,-4.269 -0.01,-0.02 -0.01,-0.059 -0.03,-0.059 -4.35,-11.902 -3.11,-26.703 -3.11,-26.703 l 10.58,-0.41 c 0.21,5.391 0.98,14.82 3.71,22.301 5.26,14.5 11.86,23.562 12.13,23.929"
         style="fill:#d9c0a6;fill-opacity:1;fill-rule:nonzero;stroke:none"
         id="path388" /><path
         d="m 4092.03,391.859 c -3.67,0 -6.68,-2.988 -6.68,-6.679 0,-0.59 0.08,-1.141 0.24,-1.66 -1.84,-1.661 -3.44,-4.278 -3.38,-8.11 0.04,-1.969 -0.47,-3.398 -1.55,-4.359 -0.84,-0.762 -1.91,-1.153 -2.95,-1.399 -7.87,11.008 -17.55,17.746 -17.55,17.746 l -7.6,-8.136 c 5.74,-5.223 11.6,-11.742 17.28,-19.903 3.95,-5.629 7.99,-12.898 11.37,-20.14 l 10.24,4.863 c 0,0 -4.67,11.539 -11.25,21.918 1.13,0.391 2.28,1.012 3.3,1.91 2.01,1.82 2.98,4.379 2.93,7.582 -0.02,2.09 0.66,3.488 1.48,4.406 1.15,-0.859 2.58,-1.418 4.12,-1.418 3.71,0 6.7,3 6.7,6.7 0,3.691 -2.99,6.679 -6.7,6.679"
         style="fill:#d9c0a6;fill-opacity:1;fill-rule:nonzero;stroke:none"
         id="path390" /><path
         d="m 4065.47,299.84 c -14.1,-6.871 -37.29,-15.93 -67.82,-20.188 -11.98,-1.66 -23.59,-2.293 -34.28,-2.293 -13.91,0 -26.2,1.043 -35.63,2.231 -10.76,1.371 -19.17,3.031 -24.32,4.18 1.24,-3.911 2.74,-7.79 4.54,-11.579 0.03,-0.101 0.08,-0.203 0.13,-0.281 0.21,-0.43 0.43,-0.89 0.65,-1.32 0.22,-0.449 0.43,-0.879 0.65,-1.27 0.06,-0.121 0.11,-0.238 0.17,-0.34 3.03,-5.699 6.67,-10.949 10.81,-15.48 14.4,-15.77 29.07,-18.25 29.21,-18.27 l 0.22,-0.031 0.22,-0.078 c 0.13,-0.039 13.14,-4.242 32.91,-4.242 19.46,0 38.55,3.922 56.74,11.66 13.47,6.891 26.23,17.359 32.54,26.703 4.88,7.219 8.42,14.938 10.5,22.949 1.12,4.258 2,11.071 1.47,18.239 -3.97,-2.66 -10.23,-6.469 -18.71,-10.59"
         style="fill:#d9c0a6;fill-opacity:1;fill-rule:nonzero;stroke:none"
         id="path392" /><path
         d="m 3954.17,366.129 c 15.57,0 28.17,-12.609 28.17,-28.16 0,-15.571 -12.6,-28.149 -28.17,-28.149 -15.55,0 -28.16,12.578 -28.16,28.149 0,15.551 12.61,28.16 28.16,28.16 z m 82.41,-0.68 c 9.61,0 17.44,-7.808 17.44,-17.437 0,-9.61 -7.83,-17.442 -17.44,-17.442 -9.61,0 -17.42,7.832 -17.42,17.442 0,9.629 7.81,17.437 17.42,17.437 z m -122.69,-6.679 c -0.41,-0.59 -6.52,-9.239 -11.35,-22.52 -3.62,-9.961 -3.46,-24.43 -3.46,-24.609 v -0.02 c 0,-3.402 0.19,-6.781 0.57,-10.121 0,-0.07 0,-0.109 0.02,-0.168 0.04,-0.43 0.11,-0.84 0.15,-1.273 0.3,-2.309 0.69,-4.649 1.19,-7.008 7,-1.781 48.78,-11.531 95.48,-5.02 29.27,4.059 51.5,12.707 64.99,19.258 11.22,5.441 18.42,10.371 21.2,12.383 -2.78,10.289 -10.41,26.398 -17.43,36.457 -20.05,28.66 -41.68,36.023 -52.77,37.832 -4.24,0.711 -7.63,1.098 -12.44,1.098 -4.47,0 -10.02,-0.348 -17.43,-1.129 -7.43,-0.789 -15.72,-2.739 -25.32,-5.961 -13.48,-4.508 -25.67,-11.598 -35.27,-20.489 l -0.33,-0.289 c -1.42,-1.312 -4.39,-4.07 -7.8,-8.421"
         style="fill:#d9c0a6;fill-opacity:1;fill-rule:nonzero;stroke:none"
         id="path394" /><path
         d="m 3321.8,2631.47 c 3.54,115.02 -55.97,148.43 -105.62,148.91 -49.63,-2.14 -107.97,-37.57 -100.53,-152.37 7.55,-117.14 75.57,-177.39 75.57,-177.39 l 0.11,-575.08 h 41.67 41.69 l -22.43,576.1 c 0,0 65.93,62.53 69.54,179.83"
         style="fill:#1d1919;fill-opacity:1;fill-rule:nonzero;stroke:none"
         id="path396" /><path
         d="m 2889.71,2552.62 c 3.32,-77.5 50.11,-104.49 50.11,-104.49 l -8.07,-572.59 h 40.65 40.66 l -10.74,571.89 c 0,0 47.39,25.92 52.45,103.33 5.07,77.41 -26.92,211.74 -33.01,228.56 0,0 6.38,-175.93 -18.73,-175.63 -25.13,0.27 -27.56,183.15 -28.22,176.16 -0.51,6.99 -7.05,-175.77 -32.18,-175.49 -25.12,0.29 -14.76,176.02 -14.76,176.02 -6.47,-16.68 -41.46,-150.27 -38.16,-227.76"
         style="fill:#1d1919;fill-opacity:1;fill-rule:nonzero;stroke:none"
         id="path398" /><g
         id="g400"
         transform="scale(10)"><text
           transform="matrix(1,0,0,-1,341.208,232.433)"
           style="font-variant:normal;font-weight:normal;font-size:63.4349px;font-family:'Font Awesome 5 Free';-inkscape-font-specification:FontleroyBrown;writing-mode:lr-tb;fill:#1d1919;fill-opacity:1;fill-rule:nonzero;stroke:none"
           id="text404"><tspan
             x="0 32.922905 46.941505 58.232483 68.382065 86.333267 100.92304 115.76588 131.30791 149.76691"
             y="0"
             sodipodi:role="line"
             id="tspan402">Restaurant</tspan></text></g><path
         d="m 5216.25,1837.57 c 0,-83.23 -67.46,-150.69 -150.66,-150.69 H 2835.67 c -83.23,0 -150.68,67.46 -150.68,150.69 v 980.8 c 0,83.2 67.45,150.66 150.68,150.66 h 2229.92 c 83.2,0 150.66,-67.46 150.66,-150.66 z"
         style="fill:none;stroke:#1d1918;stroke-width:70;stroke-linecap:butt;stroke-linejoin:miter;stroke-miterlimit:10;stroke-dasharray:none;stroke-opacity:1"
         id="path406" /><path
         d="m 5116.25,1870.62 c 0,-47.86 -40.66,-86.66 -90.8,-86.66 H 2872.78 c -50.16,0 -90.81,38.8 -90.81,86.66 v 918.49 c 0,47.85 40.65,86.66 90.81,86.66 h 2152.67 c 50.14,0 90.8,-38.81 90.8,-86.66 z"
         style="fill:none;stroke:#1d1918;stroke-width:20;stroke-linecap:butt;stroke-linejoin:miter;stroke-miterlimit:10;stroke-dasharray:none;stroke-opacity:1"
         id="path408" /><g
         id="g410"
         transform="scale(10)"><text
           transform="matrix(1,0,0,-1,374.941,203.746)"
           style="font-variant:normal;font-weight:normal;font-size:29.1134px;font-family:AlexBrush;-inkscape-font-specification:AlexBrush-Regular;writing-mode:lr-tb;fill:#1d1919;fill-opacity:1;fill-rule:nonzero;stroke:none"
           id="text414"><tspan
             x="0 24.105896 32.286762 40.467625 54.063583 59.826183 66.871628 75.05249 83.232185"
             y="0"
             sodipodi:role="line"
             id="tspan412">Good food</tspan></text></g><path
         d="m 3597.54,1998.68 h 254.54"
         style="fill:none;stroke:#1c1919;stroke-width:10;stroke-linecap:round;stroke-linejoin:miter;stroke-miterlimit:10;stroke-dasharray:none;stroke-opacity:1"
         id="path416" /><path
         d="m 3963.81,1998.68 h 273.16"
         style="fill:none;stroke:#1c1919;stroke-width:10;stroke-linecap:round;stroke-linejoin:miter;stroke-miterlimit:10;stroke-dasharray:none;stroke-opacity:1"
         id="path418" /><path
         d="M 4373.54,1998.68 H 4826.7"
         style="fill:none;stroke:#1c1919;stroke-width:10;stroke-linecap:round;stroke-linejoin:miter;stroke-miterlimit:10;stroke-dasharray:none;stroke-opacity:1"
         id="path420" /><path
         d="m 3724.82,1924.19 h 965.71"
         style="fill:none;stroke:#1c1919;stroke-width:10;stroke-linecap:round;stroke-linejoin:miter;stroke-miterlimit:10;stroke-dasharray:none;stroke-opacity:1"
         id="path422" /><path
         d="m 3977.86,2799.28 22.04,-44.64 49.26,-7.16 -35.64,-34.75 8.41,-49.06 -44.07,23.17 -44.06,-23.17 8.41,49.06 -35.63,34.75 49.25,7.16 22.03,44.64"
         style="fill:#100f0d;fill-opacity:1;fill-rule:nonzero;stroke:none"
         id="path424" /><path
         d="m 4270.43,2799.28 22.05,-44.64 49.26,-7.16 -35.65,-34.75 8.42,-49.06 -44.08,23.17 -44.04,-23.17 8.4,49.06 -35.63,34.75 49.26,7.16 22.01,44.64"
         style="fill:#100f0d;fill-opacity:1;fill-rule:nonzero;stroke:none"
         id="path426" /><path
         d="m 4563.01,2799.28 22.05,-44.64 49.26,-7.16 -35.65,-34.75 8.42,-49.06 -44.08,23.17 -44.05,-23.17 8.4,49.06 -35.62,34.75 49.26,7.16 22.01,44.64"
         style="fill:#100f0d;fill-opacity:1;fill-rule:nonzero;stroke:none"
         id="path428" /></g></g></svg>
