<svg xmlns="http://www.w3.org/2000/svg"  viewBox="0 0 48 48" width="240px" height="240px" fill="#d03827"><path fill="#d03827" d="M43.002,11.66c0.132-1.734,0.181-3.482-0.806-4.913c-0.717-1.04-1.915-1.667-3.144-1.948	c-1.23-0.281-2.506-0.254-3.767-0.225c-5.013,0.115-10.606,0.145-15.619,0.271c-2.367,0.059-5.234-0.983-7.627-0.918	C10.855,3.959,9.632,4,8.559,4.504c-1.653,0.777-2.648,2.513-3.21,4.253c-1.466,4.539-0.66,9.449-0.256,14.202	C5.479,27.502,5.481,33.112,5.1,37.655c-0.069,0.82,0.169,1.655,0.709,2.274c1.216,1.395,2.558,2.812,4.361,3.217	s3.68,0.235,5.521,0.063c1.439-0.135,2.864-0.126,4.303-0.26c5.335-0.405,10.671-0.465,16.021-0.466	c1.856-0.001,3.885-0.036,5.307-1.231c1.469-1.235,1.832-3.332,1.939-5.25c0.222-3.96-0.23-7.922-0.436-11.882	C42.566,19.123,42.483,16.635,43.002,11.66z"/><path fill="#010101" d="M12.669,43.897c-0.869,0-1.741-0.068-2.607-0.263c-1.934-0.436-3.347-1.907-4.629-3.378	c-0.61-0.698-0.913-1.662-0.831-2.644C4.979,33.107,4.977,27.504,4.595,23c-0.06-0.7-0.128-1.404-0.196-2.11	c-0.396-4.091-0.806-8.32,0.475-12.287C5.38,7.032,6.395,4.968,8.346,4.052c1.185-0.556,2.51-0.592,3.679-0.624	C13.241,3.395,14.75,3.5,16,3.75s2.519,0.624,3.653,0.594c2.633-0.065,5.426-0.105,8.211-0.145c2.518-0.035,5.029-0.071,7.409-0.126	c1.275-0.029,2.59-0.06,3.89,0.237c1.501,0.343,2.724,1.107,3.445,2.15c1.074,1.559,1.03,3.44,0.893,5.235L43.5,11.709	c-0.522,5.014-0.424,7.556-0.172,12.381c0.055,1.056,0.127,2.111,0.2,3.166c0.197,2.87,0.4,5.838,0.235,8.771	c-0.104,1.868-0.44,4.194-2.117,5.604c-1.604,1.349-3.835,1.349-5.629,1.349c-5.937,0.002-10.926,0.082-15.983,0.466	c-0.719,0.067-1.443,0.099-2.167,0.131c-0.708,0.031-1.416,0.063-2.126,0.129C14.729,43.801,13.702,43.897,12.669,43.897z M36.432,5.057c-0.38,0-0.76,0.009-1.135,0.018c-2.383,0.055-4.897,0.09-7.418,0.126c-2.782,0.039-5.571,0.079-8.2,0.145	C18.541,5.374,17.25,5,16.012,4.752C14.75,4.5,13.264,4.396,12.053,4.43c-1.071,0.029-2.286,0.062-3.282,0.529	c-1.626,0.762-2.5,2.569-2.945,3.951c-1.218,3.77-0.818,7.896-0.431,11.885c0.068,0.709,0.137,1.417,0.197,2.122	c0.387,4.559,0.39,10.219,0.007,14.78C5.54,38.41,5.754,39.104,6.187,39.6c1.173,1.346,2.455,2.69,4.094,3.059	c1.741,0.392,3.583,0.22,5.365,0.053c0.728-0.068,1.452-0.1,2.176-0.132c0.708-0.031,1.416-0.063,2.127-0.129	c5.096-0.386,10.107-0.467,16.067-0.469c1.631,0,3.661,0,4.985-1.114c1.384-1.162,1.668-3.227,1.762-4.895	c0.161-2.871-0.041-5.807-0.235-8.646c-0.073-1.061-0.146-2.121-0.201-3.182c-0.254-4.876-0.353-7.446,0.176-12.53	c0.128-1.681,0.168-3.296-0.719-4.585c-0.578-0.836-1.588-1.456-2.844-1.743C38.127,5.101,37.278,5.057,36.432,5.057z"/><path fill="#d6e5e5" d="M29.22,28.813c-0.963,0.306-1.914,0.509-2.924,0.492c-3.046-0.054-1.704,1.538-1.032,2.344 c-0.819,0.426-1.69,0.728-2.621,0.802C20.718,32.603,17.76,31.47,16.5,30c-1.5-1.75-1.234-0.044-0.25,1.5 c1.514,2.376,3.651,3.363,6.5,3.25c1.845-0.073,3.169-0.189,4.686-1.127C27.564,34.238,28.149,35,28.75,35 c0.839,0,1.412-0.935,1.501-1.699c0.086-0.741,0.232-1.472,0.406-2.198C31.567,30.138,30.522,28.398,29.22,28.813z"/><path fill="#d6e5e5" d="M9.895,28c-0.066,0-0.135-0.006-0.203-0.021c-0.541-0.111-0.95-0.657-0.777-1.181 c0.246-0.748,0.338-0.795,0.491-1.343c0.152-0.544,0.297-1.059,0.451-1.81C9.912,23.38,9.958,23.218,10,23 c0.056-0.291,0.06-0.887,0.085-1.094c0.066-0.548,0.572-0.938,1.112-0.873c0.549,0.066,0.939,0.564,0.874,1.112 c-0.034,0.281-0.052,1.001-0.123,1.307c-0.037,0.162-0.081,0.351-0.132,0.597c-0.169,0.82-0.329,1.393-0.484,1.946 C11.19,26.502,11,27,10.874,27.202C10.618,27.611,10.36,28,9.895,28z"/><path fill="#d6e5e5" d="M11.905,20c-0.438,0-0.841-0.292-0.963-0.735c-0.075-0.273-0.062-0.532,0.038-0.771 c0.13-0.307,0.456-0.572,0.783-0.636c0.343-0.068,0.697,0.04,0.942,0.286c0.158,0.158,0.259,0.365,0.286,0.588 c0.042,0.354-0.089,0.691-0.328,0.921c-0.126,0.146-0.294,0.257-0.492,0.312C12.083,19.988,11.993,20,11.905,20z M12.87,18.734 C12.87,18.734,12.87,18.735,12.87,18.734C12.87,18.735,12.87,18.734,12.87,18.734z"/><path fill="#d6e5e5" d="M20.651,16.764c-0.209,0.021-0.468-0.01-0.742-0.042c-0.593-0.067-1.484-0.271-2.207,0.095 c-0.66,0.334-0.956,0.978-1.281,1.529c-0.3,0.507-0.539,1.093-0.8,1.689c-0.02,0.045-0.031,0.091-0.05,0.136l-1.491-0.118 c-0.562-0.038-1.032,0.368-1.076,0.918c-0.044,0.551,0.367,1.032,0.918,1.076l1.006,0.08c-0.024,0.087-0.512,1.046-0.759,2.201 c-0.129,0.601-0.498,2.409-0.498,2.409c-0.146,0.533,0.169,1.083,0.702,1.228C14.46,27.988,14.549,28,14.636,28 c0.439,0,0.843-0.293,0.964-0.738c0,0,0.346-1.944,0.474-2.589c0.149-0.747,0.827-2.178,0.886-2.385l0.729,0.058 c0.027,0.002,0.054,0.003,0.08,0.003c0.517,0,0.954-0.397,0.996-0.921c0.044-0.551-0.367-1.032-0.918-1.076l-0.148-0.012 c0.165-0.319,0.265-0.676,0.443-0.976c0.138-0.234,0.269-0.665,0.463-0.763c0.188-0.094,0.697,0.064,1.075,0.108 c0.349,0.04,0.742,0.087,1.16,0.046c0.55-0.052,0.953-0.54,0.9-1.09C21.689,17.115,21.205,16.711,20.651,16.764z"/><path fill="#d6e5e5" d="M21.978,27c-0.229,0-0.445-0.033-0.641-0.071c-0.378-0.075-0.753-0.178-1.115-0.307 c-0.194-0.068-0.713-0.252-1.006-0.772c-0.163-0.288-0.198-0.58-0.21-0.8c-0.073-1.275,0.482-2.641,1.524-3.745 c0.313-0.332,0.649-0.617,0.998-0.846c0.361-0.236,0.732-0.413,1.104-0.523c0.207-0.062,0.416-0.104,0.629-0.126 c0.206-0.021,0.513-0.053,0.851,0.075c0.236,0.09,0.393,0.227,0.485,0.309c0.238,0.185,0.402,0.354,0.541,0.55 c0.273,0.391,0.44,0.876,0.472,1.368c0.04,0.65-0.125,1.333-0.506,2.092c-0.379,0.757-0.872,1.438-1.465,2.023 c-0.269,0.265-0.606,0.554-1.073,0.692C22.364,26.978,22.167,27,21.978,27z M21.258,21.991h0.01H21.258z"/><path fill="#d6e5e5" d="M28.134,27c-0.146,0-0.29-0.011-0.432-0.034c-0.376-0.062-0.698-0.2-0.957-0.412 c-0.368-0.303-0.602-0.738-0.696-1.296c-0.125-0.737-0.011-1.527,0.34-2.348c0.255-0.592,0.587-1.106,0.908-1.604l0.085-0.132 c0.229-0.353,0.501-0.775,0.945-1.089c0.203-0.144,0.426-0.248,0.653-0.31c0.17-0.19,0.411-0.315,0.685-0.332 c0.792-0.052,1.574,0.215,2.171,0.722c0.421,0.356,0.691,0.792,0.783,1.263c0.095,0.477-0.012,0.906-0.082,1.19 c-0.156,0.633-0.342,1.305-0.726,1.929c-0.291,0.475-0.658,0.853-0.945,1.128c-0.313,0.302-0.743,0.684-1.28,0.958 C29.11,26.875,28.614,27,28.134,27z"/><path fill="#d6e5e5" d="M37.038,28c-0.553,0-1-0.448-1-1c0-0.199,0.005-0.397,0.016-0.594 c-0.435,0.205-1.351,0.333-1.797,0.257c-0.35-0.057-0.636-0.205-0.85-0.44c-0.299-0.328-0.347-0.72-0.364-0.867 c-0.117-0.945,0.012-1.914,0.372-2.798c0.374-0.919,0.958-1.577,1.688-1.902c0.502-0.222,1.5-0.31,1.994-0.187 c0.148-0.638,0.647-2.485,0.835-3.12c0.153-0.515,0.693-0.816,1.205-0.685c0.521,0.132,0.844,0.651,0.732,1.177 c-0.17,0.8-0.71,2.813-0.944,3.609c-0.123,0.557-0.237,1.114-0.351,1.664c-0.264,1.282-0.536,2.608-0.536,3.885 C38.038,27.552,37.59,28,37.038,28z"/></svg>