<?xml version="1.0" encoding="utf-8"?>
<!-- Generator: Adobe Illustrator 16.0.0, SVG Export Plug-In . SVG Version: 6.00 Build 0)  -->
<!DOCTYPE svg PUBLIC "-//W3C//DTD SVG 1.0//EN" "http://www.w3.org/TR/2001/REC-SVG-20010904/DTD/svg10.dtd">
<svg version="1.0" id="Layer_1" xmlns="http://www.w3.org/2000/svg" xmlns:xlink="http://www.w3.org/1999/xlink" x="0px" y="0px"
	 width="64px" height="64px" viewBox="0 0 64 64" enable-background="new 0 0 64 64" xml:space="preserve">
<path fill="#231F20" d="M49.304,63.999c-0.664,0-1.332-0.164-1.938-0.5l-15.367-8.498l-15.366,8.498
	c-1.344,0.742-2.993,0.652-4.243-0.23c-1.25-0.883-1.891-2.403-1.645-3.915l2.981-18.262L1.137,28.183
	c-1.047-1.074-1.407-2.641-0.93-4.063c0.477-1.422,1.707-2.457,3.188-2.684l17.238-2.634l7.743-16.496
	c0.661-1.407,2.071-2.301,3.622-2.301c1.552,0,2.962,0.895,3.622,2.301l7.744,16.496l17.237,2.634
	c1.481,0.227,2.712,1.262,3.188,2.684c0.477,1.423,0.117,2.989-0.93,4.063L50.272,41.092l2.981,18.262
	c0.246,1.512-0.395,3.032-1.646,3.915C50.921,63.753,50.112,63.999,49.304,63.999z M31.999,46.429c0.668,0,1.332,0.168,1.938,0.5
	l10.092,5.579l-1.981-12.119c-0.203-1.255,0.199-2.528,1.087-3.438l8.563-8.779L40.044,26.39c-1.316-0.199-2.45-1.044-3.017-2.255
	l-5.028-10.713l-5.028,10.713c-0.566,1.211-1.699,2.056-3.017,2.255L12.3,28.171l8.564,8.779c0.887,0.91,1.289,2.184,1.086,3.438
	l-1.98,12.119l10.092-5.579C30.667,46.597,31.331,46.429,31.999,46.429z"/>
</svg>
