<?xml version="1.0" encoding="utf-8"?>
<!-- Generator: Adobe Illustrator 16.0.0, SVG Export Plug-In . SVG Version: 6.00 Build 0)  -->
<!DOCTYPE svg PUBLIC "-//W3C//DTD SVG 1.0//EN" "http://www.w3.org/TR/2001/REC-SVG-20010904/DTD/svg10.dtd">
<svg version="1.0" id="Layer_1" xmlns="http://www.w3.org/2000/svg" xmlns:xlink="http://www.w3.org/1999/xlink" x="0px" y="0px"
	 width="64px" height="64px" viewBox="0 0 64 64" enable-background="new 0 0 64 64" xml:space="preserve">
<g>
	<path fill="#231F20" d="M0,27.982v32.016C0,62.206,1.79,64,4.002,64h4.002V23.98H4.002C1.79,23.98,0,25.767,0,27.982z"/>
	<path fill="#231F20" d="M60.029,23.98H32.016V3.97c0-2.216-1.79-4.002-4.002-4.002H20.01c-2.212,0-4.002,1.786-4.002,4.002v20.01
		V64h35.205c2.563,0,4.123-1.759,4.814-4.002l7.848-31.387C64.532,25.728,62.241,23.98,60.029,23.98z M48.778,55.996H24.012V31.984
		h30.77L48.778,55.996z"/>
</g>
</svg>
