<?xml version="1.0" encoding="utf-8"?>
<!-- Generator: Adobe Illustrator 16.0.0, SVG Export Plug-In . SVG Version: 6.00 Build 0)  -->
<!DOCTYPE svg PUBLIC "-//W3C//DTD SVG 1.0//EN" "http://www.w3.org/TR/2001/REC-SVG-20010904/DTD/svg10.dtd">
<svg version="1.0" id="Layer_1" xmlns="http://www.w3.org/2000/svg" xmlns:xlink="http://www.w3.org/1999/xlink" x="0px" y="0px"
	 width="64px" height="64px" viewBox="0 0 64 64" enable-background="new 0 0 64 64" xml:space="preserve">
<g>
	<path fill="#231F20" d="M0,35.986V3.97c0-2.216,1.79-4.002,4.002-4.002h4.002v40.02H4.002C1.79,39.988,0,38.194,0,35.986z"/>
	<path fill="#231F20" d="M60.029,39.988H32.016v20.01c0,2.208-1.79,4.002-4.002,4.002H20.01c-2.212,0-4.002-1.794-4.002-4.002
		v-20.01v-40.02h35.205c2.563,0,4.123,1.751,4.814,4.002l7.848,31.379C64.532,38.233,62.241,39.988,60.029,39.988z M48.778,7.973
		H24.012v24.012h30.77L48.778,7.973z"/>
</g>
</svg>
